<svg width="29" height="29" viewBox="0 0 29 29" fill="none" xmlns="http://www.w3.org/2000/svg">
<rect width="28.125" height="28.125" rx="14.0625" transform="matrix(-1 0 0 1 28.4688 0.53125)" fill="white"/>
<rect width="14.0625" height="14.0625" transform="matrix(-1 0 0 1 21.4375 7.5625)" fill="white"/>
<path d="M11.9453 8.73438H16.8672C18.7422 8.73438 20.2656 10.2578 20.2656 12.1328V17.0547C20.2656 17.956 19.9076 18.8204 19.2702 19.4577C18.6329 20.0951 17.7685 20.4531 16.8672 20.4531H11.9453C10.0703 20.4531 8.54688 18.9297 8.54688 17.0547V12.1328C8.54688 11.2315 8.90492 10.3671 9.54225 9.72975C10.1796 9.09242 11.044 8.73438 11.9453 8.73438ZM11.8281 9.90625C11.2687 9.90625 10.7322 10.1285 10.3366 10.5241C9.94099 10.9197 9.71875 11.4562 9.71875 12.0156V17.1719C9.71875 18.3379 10.6621 19.2812 11.8281 19.2812H16.9844C17.5438 19.2812 18.0803 19.059 18.4759 18.6634C18.8715 18.2678 19.0938 17.7313 19.0938 17.1719V12.0156C19.0938 10.8496 18.1504 9.90625 16.9844 9.90625H11.8281ZM17.4824 10.7852C17.6767 10.7852 17.863 10.8623 18.0003 10.9997C18.1377 11.137 18.2148 11.3233 18.2148 11.5176C18.2148 11.7118 18.1377 11.8981 18.0003 12.0355C17.863 12.1728 17.6767 12.25 17.4824 12.25C17.2882 12.25 17.1019 12.1728 16.9645 12.0355C16.8272 11.8981 16.75 11.7118 16.75 11.5176C16.75 11.3233 16.8272 11.137 16.9645 10.9997C17.1019 10.8623 17.2882 10.7852 17.4824 10.7852ZM14.4062 11.6641C15.1833 11.6641 15.9284 11.9727 16.4779 12.5221C17.0273 13.0716 17.3359 13.8167 17.3359 14.5938C17.3359 15.3708 17.0273 16.1159 16.4779 16.6654C15.9284 17.2148 15.1833 17.5234 14.4062 17.5234C13.6292 17.5234 12.8841 17.2148 12.3346 16.6654C11.7852 16.1159 11.4766 15.3708 11.4766 14.5938C11.4766 13.8167 11.7852 13.0716 12.3346 12.5221C12.8841 11.9727 13.6292 11.6641 14.4062 11.6641ZM14.4062 12.8359C13.94 12.8359 13.4929 13.0211 13.1633 13.3508C12.8336 13.6804 12.6484 14.1275 12.6484 14.5938C12.6484 15.06 12.8336 15.5071 13.1633 15.8367C13.4929 16.1664 13.94 16.3516 14.4062 16.3516C14.8725 16.3516 15.3196 16.1664 15.6492 15.8367C15.9789 15.5071 16.1641 15.06 16.1641 14.5938C16.1641 14.1275 15.9789 13.6804 15.6492 13.3508C15.3196 13.0211 14.8725 12.8359 14.4062 12.8359Z" fill="#7D4283"/>
</svg>
