<svg width="29" height="29" viewBox="0 0 29 29" fill="none" xmlns="http://www.w3.org/2000/svg">
<rect width="28.125" height="28.125" rx="14.0625" transform="matrix(-1 0 0 1 28.4688 0.71875)" fill="white"/>
<rect width="14.0625" height="14.0625" transform="matrix(-1 0 0 1 21.4375 7.75)" fill="white"/>
<path d="M18.5078 9.50781C18.8186 9.50781 19.1167 9.63128 19.3365 9.85105C19.5562 10.0708 19.6797 10.3689 19.6797 10.6797V18.8828C19.6797 19.1936 19.5562 19.4917 19.3365 19.7115C19.1167 19.9312 18.8186 20.0547 18.5078 20.0547H10.3047C9.99389 20.0547 9.69582 19.9312 9.47605 19.7115C9.25628 19.4917 9.13281 19.1936 9.13281 18.8828V10.6797C9.13281 10.3689 9.25628 10.0708 9.47605 9.85105C9.69582 9.63128 9.99389 9.50781 10.3047 9.50781H18.5078ZM18.2148 18.5898V15.4844C18.2148 14.9778 18.0136 14.4919 17.6554 14.1337C17.2971 13.7755 16.8113 13.5742 16.3047 13.5742C15.8066 13.5742 15.2266 13.8789 14.9453 14.3359V13.6855H13.3105V18.5898H14.9453V15.7012C14.9453 15.25 15.3086 14.8809 15.7598 14.8809C15.9773 14.8809 16.186 14.9673 16.3398 15.1211C16.4937 15.275 16.5801 15.4836 16.5801 15.7012V18.5898H18.2148ZM11.4062 12.7656C11.6673 12.7656 11.9177 12.6619 12.1023 12.4773C12.2869 12.2927 12.3906 12.0423 12.3906 11.7812C12.3906 11.2363 11.9512 10.791 11.4062 10.791C11.1436 10.791 10.8918 10.8953 10.706 11.081C10.5203 11.2668 10.416 11.5186 10.416 11.7812C10.416 12.3262 10.8613 12.7656 11.4062 12.7656ZM12.2207 18.5898V13.6855H10.5977V18.5898H12.2207Z" fill="#7D4283"/>
</svg>
