<svg width="50" height="50" viewBox="0 0 50 50" fill="none" xmlns="http://www.w3.org/2000/svg">
<path d="M35.3606 33.2863H39.501V8.44431H18.7992V12.5847H35.3606V33.2863ZM35.3606 37.4267V43.6355C35.3606 44.7797 34.429 45.7074 33.2762 45.7074H8.4625C7.31136 45.7074 6.37854 44.787 6.37854 43.6355L6.38392 14.6566C6.38415 13.5123 7.31558 12.5847 8.46822 12.5847H14.6588V6.37413C14.6588 5.23079 15.5857 4.30396 16.729 4.30396H41.5712C42.7145 4.30396 43.6413 5.23079 43.6413 6.37413V35.3565C43.6413 36.4998 42.7145 37.4267 41.5712 37.4267H35.3606ZM10.5239 16.725L10.5193 41.567H31.2203V16.725H10.5239ZM14.6588 33.2863H23.9747C24.5462 33.2863 25.0097 32.823 25.0097 32.2512C25.0097 31.6796 24.5462 31.2161 23.9747 31.2161H17.7641C14.9058 31.2161 12.5887 28.8992 12.5887 26.0407C12.5887 23.1824 14.9058 20.8653 17.7641 20.8653H18.7992V18.7952H22.9396V20.8653H27.0799V25.0056H17.7641C17.1924 25.0056 16.729 25.4691 16.729 26.0407C16.729 26.6125 17.1924 27.0758 17.7641 27.0758H23.9747C26.8329 27.0758 29.1501 29.3929 29.1501 32.2512C29.1501 35.1097 26.8329 37.4267 23.9747 37.4267H22.9396V39.4968H18.7992V37.4267H14.6588V33.2863Z" fill="white"/>
</svg>
