<svg width="229" height="159" viewBox="0 0 229 159" fill="none" xmlns="http://www.w3.org/2000/svg">
<path d="M108.132 10.7073C119.488 14.8706 101.203 51.3495 156.23 51.3495C185.289 51.3495 179.027 81.1537 196.562 83.2684" stroke="#F6F5FA" stroke-width="0.764146"/>
<path d="M139.696 0.992859C151.053 5.1562 132.767 41.635 187.795 41.635C216.854 41.635 210.591 71.4393 228.127 73.554" stroke="#F6F5FA" stroke-width="0.764146"/>
<path d="M58.0289 36.2293C76.4608 33.5871 114.198 33.5833 106.628 49.1623C94.1027 74.9415 123.594 100.268 202.324 105.275" stroke="#F6F5FA" stroke-width="0.764146"/>
<path d="M23.9594 45.8383C46.7432 42.5775 93.3903 42.5728 84.0336 61.799C68.5505 93.6136 105.005 124.87 202.324 131.048" stroke="#F6F5FA" stroke-width="0.764146"/>
<path d="M0.411377 61.9139C26.2032 58.2213 79.0087 58.216 68.4167 79.9881C50.8896 116.016 92.1564 151.411 202.324 158.407" stroke="#F6F5FA" stroke-width="0.764146"/>
</svg>
