<svg width="19" height="18" viewBox="0 0 19 18" fill="none" xmlns="http://www.w3.org/2000/svg">
<g clip-path="url(#clip0_7_255)">
<rect x="0.684814" y="0.210754" width="17.7331" height="17.7331" rx="7.64146" fill="#7D4283"/>
<rect x="18.4178" y="17.9439" width="17.7331" height="17.7331" rx="8.86654" transform="rotate(-180 18.4178 17.9439)" fill="#7D4283"/>
<path d="M11.7483 7.74272C11.8319 7.6512 11.9448 7.59985 12.0625 7.59985C12.1801 7.59985 12.293 7.6512 12.3766 7.74272C12.4179 7.78767 12.4507 7.84124 12.4731 7.90033C12.4955 7.95941 12.507 8.02283 12.507 8.08688C12.507 8.15093 12.4955 8.21435 12.4731 8.27343C12.4507 8.33252 12.4179 8.38609 12.3766 8.43103L9.86594 11.1516C9.78215 11.243 9.66917 11.2942 9.55146 11.2942C9.43375 11.2942 9.32078 11.243 9.23698 11.1516L6.72628 8.43103C6.685 8.38609 6.65222 8.33252 6.62984 8.27343C6.60747 8.21435 6.59595 8.15093 6.59595 8.08688C6.59595 8.02283 6.60747 7.95941 6.62984 7.90033C6.65222 7.84124 6.685 7.78767 6.72628 7.74272C6.80988 7.6512 6.92278 7.59985 7.04044 7.59985C7.15809 7.59985 7.27099 7.6512 7.3546 7.74272L9.55242 9.97387L11.7483 7.74272Z" fill="white"/>
</g>
<defs>
<clipPath id="clip0_7_255">
<rect x="0.684814" y="0.210754" width="17.7331" height="17.7331" rx="7.64146" fill="white"/>
</clipPath>
</defs>
</svg>
