<svg width="35" height="44" viewBox="0 0 35 44" fill="none" xmlns="http://www.w3.org/2000/svg">
<path d="M0.938599 43.7017C0.938599 34.5551 8.35339 27.1403 17.5 27.1403C26.6467 27.1403 34.0614 34.5551 34.0614 43.7017H29.9211C29.9211 36.8418 24.3599 31.2807 17.5 31.2807C10.64 31.2807 5.07895 36.8418 5.07895 43.7017H0.938599ZM17.5 25.0701C10.6374 25.0701 5.07895 19.5117 5.07895 12.6491C5.07895 5.78645 10.6374 0.228027 17.5 0.228027C24.3626 0.228027 29.9211 5.78645 29.9211 12.6491C29.9211 19.5117 24.3626 25.0701 17.5 25.0701ZM17.5 20.9298C22.0751 20.9298 25.7807 17.2242 25.7807 12.6491C25.7807 8.07399 22.0751 4.36838 17.5 4.36838C12.9249 4.36838 9.2193 8.07399 9.2193 12.6491C9.2193 17.2242 12.9249 20.9298 17.5 20.9298Z" fill="white"/>
</svg>
