<svg width="1046" height="626" viewBox="0 0 1046 626" fill="none" xmlns="http://www.w3.org/2000/svg">
<path fill-rule="evenodd" clip-rule="evenodd" d="M-239.446 -204.6C-239.374 -204.105 -239.374 -204.105 -239.372 -204.105L-239.364 -204.106L-239.331 -204.111C-239.301 -204.115 -239.256 -204.121 -239.195 -204.129C-239.073 -204.145 -238.889 -204.167 -238.643 -204.195C-238.152 -204.25 -237.415 -204.325 -236.434 -204.402C-234.474 -204.557 -231.544 -204.721 -227.675 -204.758C-219.935 -204.831 -208.439 -204.396 -193.431 -202.358C-163.417 -198.283 -119.354 -187.796 -63.2125 -162.141C49.0696 -110.831 209.678 1.15714 402.832 243.894C596.059 486.722 756.786 598.825 869.243 650.215C925.471 675.91 969.629 686.425 999.743 690.514C1014.8 692.558 1026.34 692.996 1034.13 692.922C1038.02 692.885 1040.98 692.72 1042.96 692.564C1043.52 692.52 1044 692.476 1044.41 692.437C1044.72 692.406 1044.98 692.378 1045.2 692.353C1045.45 692.325 1045.64 692.302 1045.77 692.285L1045.91 692.266L1045.95 692.261L1045.96 692.259C1045.96 692.259 1045.96 692.259 1045.89 691.764C1045.85 691.484 1045.83 691.363 1045.83 691.31C1045.82 691.269 1045.82 691.269 1045.82 691.27L1045.81 691.271L1045.78 691.275C1045.75 691.279 1045.7 691.286 1045.64 691.293L1045.51 691.309C1045.4 691.323 1045.26 691.34 1045.09 691.36C1044.6 691.415 1043.86 691.49 1042.88 691.567C1040.92 691.721 1037.99 691.885 1034.12 691.922C1026.38 691.996 1014.88 691.561 999.877 689.523C969.862 685.447 925.799 674.96 869.658 649.305C757.376 597.996 596.768 486.007 403.614 243.271C210.387 0.442104 49.6603 -111.661 -62.7968 -163.05C-119.025 -188.745 -163.183 -199.26 -193.297 -203.349C-208.353 -205.394 -219.898 -205.832 -227.684 -205.758C-231.577 -205.72 -234.53 -205.555 -236.513 -205.399C-237.504 -205.321 -238.253 -205.245 -238.755 -205.189C-239.006 -205.161 -239.196 -205.137 -239.323 -205.121C-239.387 -205.112 -239.435 -205.106 -239.468 -205.101L-239.505 -205.096L-239.515 -205.095C-239.517 -205.095 -239.518 -205.094 -239.446 -204.6ZM-246.134 -195.034C-246.135 -195.034 -246.136 -195.034 -246.208 -195.529C-246.28 -196.023 -246.278 -196.024 -246.276 -196.024L-246.266 -196.025L-246.229 -196.031L-246.171 -196.038L-246.085 -196.05C-245.957 -196.066 -245.768 -196.09 -245.517 -196.118C-245.015 -196.174 -244.266 -196.25 -243.274 -196.328C-241.292 -196.485 -238.339 -196.65 -234.446 -196.687C-226.659 -196.761 -215.115 -196.323 -200.058 -194.278C-169.945 -190.189 -125.787 -179.674 -69.5584 -153.979C42.8988 -102.59 203.625 9.51303 396.853 252.342C590.006 495.078 750.615 607.066 862.897 658.376C919.038 684.031 963.101 694.518 993.116 698.594C1008.12 700.632 1019.62 701.067 1027.36 700.993C1031.23 700.956 1034.16 700.792 1036.12 700.638C1036.67 700.594 1037.15 700.551 1037.55 700.512C1037.86 700.482 1038.11 700.455 1038.33 700.431C1038.5 700.411 1038.64 700.394 1038.75 700.38L1038.88 700.364L1038.97 700.353L1039.02 700.346L1039.05 700.342L1039.06 700.341C1039.06 700.34 1039.06 700.34 1039.06 700.387L1039.09 700.549L1039.13 700.835C1039.2 701.33 1039.2 701.33 1039.2 701.33L1039.19 701.332L1039.15 701.337L1039.01 701.356C1038.95 701.364 1038.88 701.373 1038.79 701.383C1038.69 701.395 1038.58 701.409 1038.44 701.424C1037.94 701.481 1037.19 701.557 1036.2 701.635C1034.21 701.791 1031.26 701.956 1027.37 701.993C1019.58 702.067 1008.04 701.629 992.981 699.585C962.867 695.496 918.71 684.981 862.481 659.286C750.024 607.896 589.298 495.793 396.07 252.964C202.916 10.2281 42.3081 -101.76 -69.974 -153.07C-126.115 -178.725 -170.178 -189.212 -200.193 -193.287C-215.201 -195.325 -226.697 -195.76 -234.436 -195.687C-238.306 -195.65 -241.236 -195.486 -243.196 -195.331C-244.176 -195.254 -244.914 -195.18 -245.405 -195.124C-245.65 -195.097 -245.834 -195.074 -245.956 -195.058L-246.044 -195.046L-246.093 -195.04L-246.126 -195.035L-246.134 -195.034ZM-252.969 -186.458C-252.897 -185.963 -252.897 -185.963 -252.895 -185.963L-252.887 -185.964L-252.854 -185.969L-252.77 -185.98L-252.718 -185.987C-252.596 -186.003 -252.412 -186.026 -252.166 -186.053C-251.675 -186.109 -250.938 -186.183 -249.958 -186.261C-247.997 -186.415 -245.067 -186.579 -241.198 -186.616C-233.459 -186.689 -221.962 -186.254 -206.954 -184.216C-176.94 -180.141 -132.877 -169.654 -76.7356 -143.999C35.5466 -92.6892 196.155 19.299 389.309 262.035C582.536 504.864 743.262 616.967 855.72 668.357C911.948 694.052 956.106 704.567 986.22 708.656C1001.28 710.7 1012.82 711.138 1020.61 711.064C1024.5 711.027 1027.45 710.862 1029.44 710.706C1030.43 710.628 1031.18 710.552 1031.68 710.495C1031.93 710.467 1032.12 710.444 1032.25 710.427L1032.39 710.408L1032.43 710.403L1032.44 710.401C1032.44 710.401 1032.44 710.401 1032.44 710.392C1032.44 710.385 1032.44 710.373 1032.43 710.351C1032.43 710.309 1032.42 710.231 1032.4 710.085L1032.37 709.906C1032.3 709.411 1032.3 709.411 1032.29 709.411L1032.29 709.413L1032.25 709.417C1032.22 709.421 1032.18 709.427 1032.12 709.435L1031.99 709.451C1031.88 709.465 1031.74 709.482 1031.57 709.501C1031.45 709.514 1031.33 709.528 1031.19 709.543C1031.08 709.554 1030.97 709.565 1030.85 709.577C1030.44 709.617 1029.94 709.663 1029.36 709.709C1027.4 709.863 1024.47 710.027 1020.6 710.064C1012.86 710.137 1001.36 709.703 986.354 707.665C956.339 703.589 912.276 693.102 856.135 667.447C743.853 616.137 583.245 504.149 390.091 261.413C196.864 18.584 36.1372 -93.5187 -76.3199 -144.909C-132.549 -170.603 -176.706 -181.118 -206.82 -185.207C-221.876 -187.252 -233.421 -187.69 -241.207 -187.616C-245.1 -187.579 -248.053 -187.414 -250.036 -187.257C-251.027 -187.179 -251.776 -187.104 -252.278 -187.047C-252.529 -187.019 -252.719 -186.995 -252.846 -186.979L-252.913 -186.97L-252.991 -186.96L-253.028 -186.954L-253.038 -186.953C-253.04 -186.953 -253.041 -186.952 -252.969 -186.458ZM-259.657 -176.892C-259.658 -176.892 -259.659 -176.892 -259.731 -177.387C-259.803 -177.882 -259.802 -177.882 -259.799 -177.882L-259.789 -177.884L-259.752 -177.889C-259.72 -177.893 -259.671 -177.9 -259.608 -177.908C-259.48 -177.924 -259.291 -177.948 -259.04 -177.976C-258.538 -178.033 -257.789 -178.108 -256.798 -178.187C-254.815 -178.343 -251.862 -178.508 -247.969 -178.545C-240.183 -178.619 -228.638 -178.181 -213.581 -176.136C-183.468 -172.047 -139.31 -161.533 -83.0814 -135.838C29.3757 -84.4478 190.102 27.6549 383.33 270.484C576.483 513.22 737.092 625.208 849.374 676.518C905.515 702.173 949.578 712.66 979.593 716.736C994.6 718.773 1006.1 719.208 1013.84 719.135C1017.71 719.098 1020.64 718.934 1022.6 718.78C1023.58 718.703 1024.31 718.628 1024.8 718.572C1024.98 718.553 1025.12 718.536 1025.23 718.522L1025.36 718.506C1025.42 718.498 1025.46 718.492 1025.49 718.488L1025.53 718.483L1025.53 718.482C1025.53 718.482 1025.54 718.482 1025.61 718.977C1025.65 719.263 1025.67 719.383 1025.67 719.435C1025.68 719.472 1025.68 719.472 1025.68 719.472L1025.67 719.474L1025.63 719.479L1025.48 719.498C1025.43 719.505 1025.36 719.514 1025.28 719.523C1025.18 719.536 1025.06 719.55 1024.92 719.566C1024.41 719.623 1023.67 719.699 1022.67 719.777C1020.69 719.933 1017.74 720.098 1013.85 720.135C1006.06 720.209 994.515 719.771 979.458 717.727C949.344 713.638 905.187 703.123 848.958 677.428C736.501 626.038 575.774 513.935 382.547 271.106C189.393 28.3699 28.785 -83.6183 -83.4971 -134.928C-139.638 -160.583 -183.701 -171.07 -213.716 -175.146C-228.724 -177.183 -240.22 -177.618 -247.959 -177.545C-251.829 -177.508 -254.759 -177.344 -256.719 -177.19C-257.699 -177.112 -258.437 -177.038 -258.928 -176.982C-259.174 -176.955 -259.358 -176.932 -259.479 -176.916C-259.54 -176.908 -259.586 -176.902 -259.616 -176.898L-259.649 -176.893L-259.657 -176.892ZM-266.492 -168.316C-266.42 -167.821 -266.42 -167.821 -266.418 -167.821L-266.41 -167.822L-266.377 -167.827L-266.318 -167.835L-266.241 -167.845C-266.119 -167.861 -265.935 -167.884 -265.689 -167.911C-265.198 -167.967 -264.461 -168.042 -263.481 -168.119C-261.52 -168.273 -258.59 -168.437 -254.721 -168.474C-246.982 -168.547 -235.485 -168.112 -220.477 -166.075C-190.463 -161.999 -146.4 -151.512 -90.2586 -125.857C22.0235 -74.5474 182.632 37.4409 375.786 280.177C569.013 523.006 729.739 635.109 842.197 686.499C898.425 712.194 942.583 722.708 972.696 726.797C987.753 728.842 999.298 729.28 1007.08 729.206C1010.98 729.169 1013.93 729.004 1015.91 728.848C1016.9 728.769 1017.65 728.694 1018.15 728.637L1018.31 728.62L1018.44 728.604L1018.59 728.586L1018.72 728.569L1018.87 728.55L1018.9 728.545L1018.91 728.543C1018.92 728.543 1018.92 728.543 1018.91 728.514C1018.91 728.495 1018.91 728.462 1018.9 728.408C1018.89 728.335 1018.87 728.222 1018.85 728.048C1018.77 727.553 1018.77 727.553 1018.77 727.553L1018.76 727.554L1018.73 727.559C1018.7 727.563 1018.66 727.569 1018.59 727.577L1018.47 727.593C1018.36 727.607 1018.21 727.624 1018.04 727.643C1017.55 727.699 1016.81 727.773 1015.83 727.851C1013.87 728.005 1010.94 728.169 1007.07 728.206C999.335 728.279 987.839 727.844 972.831 725.806C942.816 721.731 898.753 711.244 842.612 685.589C730.33 634.279 569.722 522.291 376.568 279.555C183.341 36.7258 22.6142 -75.3769 -89.8429 -126.767C-146.072 -152.462 -190.229 -162.977 -220.343 -167.066C-235.399 -169.11 -246.944 -169.548 -254.73 -169.474C-258.623 -169.437 -261.576 -169.272 -263.559 -169.116C-264.55 -169.038 -265.299 -168.962 -265.801 -168.905C-265.947 -168.889 -266.072 -168.874 -266.176 -168.861L-266.266 -168.85L-266.369 -168.837C-266.433 -168.829 -266.481 -168.822 -266.514 -168.818L-266.551 -168.813L-266.561 -168.811C-266.563 -168.811 -266.565 -168.811 -266.492 -168.316ZM-273.18 -158.75C-273.181 -158.75 -273.182 -158.75 -273.254 -159.245C-273.326 -159.74 -273.325 -159.74 -273.322 -159.74L-273.312 -159.742L-273.275 -159.747L-273.238 -159.752L-273.184 -159.759L-273.131 -159.766C-273.003 -159.783 -272.814 -159.806 -272.563 -159.834C-272.061 -159.891 -271.312 -159.967 -270.321 -160.045C-268.338 -160.201 -265.385 -160.366 -261.492 -160.403C-253.706 -160.477 -242.161 -160.039 -227.104 -157.995C-196.991 -153.906 -152.833 -143.391 -96.6045 -117.696C15.8527 -66.306 176.579 45.7967 369.806 288.626C562.96 531.362 723.568 643.35 835.851 694.66C891.992 720.315 936.055 730.802 966.069 734.877C981.077 736.915 992.574 737.35 1000.31 737.277C1004.18 737.24 1007.11 737.076 1009.07 736.921C1010.05 736.844 1010.79 736.77 1011.28 736.714L1011.48 736.691L1011.62 736.675L1011.71 736.664L1011.83 736.648L1011.91 736.638L1011.97 736.63L1012 736.625L1012.01 736.624C1012.01 736.624 1012.01 736.624 1012.08 737.119C1012.13 737.411 1012.14 737.531 1012.15 737.58C1012.15 737.614 1012.15 737.614 1012.15 737.614L1012.14 737.615L1012.11 737.621L1011.96 737.64L1011.87 737.652C1011.75 737.667 1011.59 737.686 1011.39 737.708C1010.89 737.764 1010.14 737.84 1009.15 737.919C1007.17 738.075 1004.22 738.24 1000.32 738.277C992.536 738.351 980.991 737.913 965.935 735.868C935.821 731.779 891.664 721.264 835.435 695.569C722.978 644.18 562.251 532.077 369.024 289.248C175.87 46.5118 15.262 -65.4764 -97.0201 -116.786C-153.161 -142.441 -197.224 -152.928 -227.239 -157.004C-242.247 -159.042 -253.743 -159.477 -261.482 -159.403C-265.352 -159.366 -268.282 -159.202 -270.242 -159.048C-271.222 -158.971 -271.96 -158.896 -272.451 -158.84C-272.697 -158.813 -272.881 -158.79 -273.003 -158.774C-273.064 -158.766 -273.109 -158.76 -273.139 -158.756L-273.172 -158.752L-273.18 -158.75ZM-280.015 -150.174C-279.943 -149.679 -279.943 -149.679 -279.941 -149.68L-279.934 -149.681L-279.9 -149.685C-279.871 -149.689 -279.825 -149.695 -279.764 -149.703C-279.642 -149.719 -279.458 -149.742 -279.212 -149.77C-278.721 -149.825 -277.984 -149.9 -277.004 -149.977C-275.043 -150.131 -272.113 -150.295 -268.244 -150.332C-260.505 -150.406 -249.008 -149.971 -234.001 -147.933C-203.986 -143.857 -159.923 -133.37 -103.782 -107.715C8.50046 -56.4055 169.109 55.5827 362.262 298.319C555.49 541.148 716.216 653.251 828.673 704.64C884.902 730.335 929.06 740.85 959.173 744.939C974.23 746.984 985.775 747.422 993.561 747.348C997.454 747.311 1000.41 747.146 1002.39 746.989C1003.38 746.911 1004.13 746.835 1004.63 746.779C1004.88 746.751 1005.07 746.727 1005.2 746.711L1005.34 746.692L1005.38 746.686L1005.39 746.685C1005.39 746.685 1005.4 746.684 1005.32 746.19C1005.28 745.909 1005.26 745.788 1005.26 745.735C1005.25 745.695 1005.25 745.695 1005.25 745.695L1005.24 745.696L1005.21 745.701C1005.18 745.705 1005.13 745.711 1005.07 745.719L1004.95 745.735C1004.83 745.749 1004.69 745.766 1004.52 745.785C1004.03 745.841 1003.29 745.915 1002.31 745.992C1000.35 746.147 997.421 746.311 993.551 746.348C985.812 746.421 974.316 745.986 959.308 743.948C929.293 739.873 885.23 729.386 829.089 703.731C716.807 652.421 556.199 540.433 363.045 297.696C169.818 54.8677 9.09114 -57.235 -103.366 -108.625C-159.595 -134.32 -203.752 -144.835 -233.866 -148.924C-248.923 -150.968 -260.467 -151.406 -268.253 -151.332C-272.146 -151.295 -275.099 -151.13 -277.082 -150.974C-278.073 -150.896 -278.822 -150.82 -279.324 -150.763C-279.575 -150.735 -279.765 -150.712 -279.892 -150.695L-279.968 -150.685L-280.037 -150.676L-280.074 -150.671L-280.084 -150.669C-280.086 -150.669 -280.088 -150.669 -280.015 -150.174ZM-286.703 -140.609C-286.704 -140.608 -286.705 -140.608 -286.777 -141.103C-286.849 -141.598 -286.848 -141.598 -286.845 -141.598L-286.835 -141.6L-286.798 -141.605C-286.766 -141.609 -286.718 -141.616 -286.654 -141.624C-286.526 -141.641 -286.337 -141.664 -286.086 -141.692C-285.584 -141.749 -284.835 -141.825 -283.844 -141.903C-281.861 -142.059 -278.908 -142.224 -275.015 -142.261C-267.229 -142.335 -255.684 -141.897 -240.627 -139.853C-210.514 -135.764 -166.356 -125.249 -110.128 -99.5539C2.32961 -48.1641 163.056 63.9386 356.283 306.767C549.437 549.504 710.045 661.492 822.328 712.802C878.469 738.457 922.532 748.944 952.546 753.019C967.554 755.057 979.051 755.492 986.79 755.418C990.659 755.382 993.589 755.218 995.55 755.063C996.069 755.022 996.52 754.982 996.903 754.945C997.242 754.912 997.528 754.882 997.758 754.856C997.93 754.837 998.072 754.82 998.184 754.806L998.31 754.79C998.371 754.782 998.416 754.776 998.446 754.772L998.48 754.767L998.487 754.766C998.488 754.766 998.488 754.766 998.495 754.808C998.503 754.862 998.521 754.984 998.561 755.261L998.603 755.548C998.619 755.658 998.626 755.71 998.629 755.734C998.63 755.746 998.63 755.752 998.63 755.754C998.63 755.756 998.63 755.756 998.63 755.756L998.62 755.757L998.583 755.763L998.438 755.782C998.311 755.798 998.121 755.822 997.87 755.85C997.368 755.906 996.619 755.982 995.628 756.06C993.645 756.216 990.692 756.382 986.799 756.419C979.013 756.493 967.468 756.055 952.412 754.01C922.298 749.921 878.141 739.406 821.912 713.711C709.455 662.322 548.728 550.219 355.501 307.39C162.347 64.6536 1.73893 -47.3346 -110.543 -98.6444C-166.684 -124.299 -210.747 -134.786 -240.762 -138.862C-255.77 -140.9 -267.266 -141.335 -275.005 -141.261C-278.875 -141.224 -281.805 -141.06 -283.765 -140.906C-284.745 -140.829 -285.483 -140.754 -285.974 -140.699C-286.22 -140.671 -286.404 -140.648 -286.526 -140.632L-286.596 -140.623L-286.662 -140.614L-286.695 -140.61L-286.703 -140.609ZM-293.538 -132.032C-293.466 -131.537 -293.466 -131.537 -293.464 -131.538L-293.457 -131.539L-293.423 -131.543C-293.394 -131.548 -293.348 -131.554 -293.287 -131.562C-293.165 -131.577 -292.981 -131.6 -292.736 -131.628C-292.244 -131.683 -291.507 -131.758 -290.527 -131.835C-288.566 -131.989 -285.636 -132.153 -281.767 -132.19C-274.028 -132.264 -262.531 -131.829 -247.524 -129.791C-217.509 -125.715 -173.446 -115.228 -117.305 -89.5734C-5.02259 -38.2636 155.586 73.7246 348.739 316.461C541.967 559.29 702.693 671.393 815.15 722.782C871.379 748.477 915.537 758.992 945.65 763.081C960.707 765.126 972.251 765.564 980.038 765.489C983.931 765.452 986.884 765.287 988.866 765.131C989.395 765.09 989.854 765.049 990.244 765.011C990.586 764.978 990.874 764.947 991.109 764.921C991.36 764.893 991.549 764.869 991.677 764.853C991.74 764.844 991.789 764.838 991.821 764.833L991.858 764.828L991.868 764.827C991.869 764.827 991.869 764.827 991.868 764.816C991.868 764.81 991.867 764.801 991.865 764.786L991.859 764.744L991.851 764.683L991.834 764.564L991.8 764.331C991.76 764.061 991.742 763.939 991.734 763.883C991.727 763.837 991.726 763.837 991.726 763.837L991.718 763.838L991.685 763.843C991.655 763.847 991.61 763.853 991.548 763.861L991.422 763.877L991.285 763.894C991.201 763.904 991.105 763.915 990.997 763.927C990.708 763.96 990.334 763.999 989.876 764.041C989.555 764.071 989.192 764.102 988.788 764.134C986.828 764.289 983.898 764.453 980.028 764.489C972.289 764.563 960.793 764.128 945.785 762.09C915.77 758.015 871.707 747.528 815.566 721.873C703.284 670.563 542.676 558.575 349.522 315.838C156.294 73.0095 -4.43192 -39.0932 -116.889 -90.483C-173.118 -116.178 -217.275 -126.693 -247.389 -130.782C-262.446 -132.826 -273.99 -133.264 -281.776 -133.19C-285.669 -133.153 -288.622 -132.988 -290.605 -132.832C-291.597 -132.754 -292.345 -132.678 -292.847 -132.621C-293.099 -132.593 -293.288 -132.57 -293.415 -132.553C-293.479 -132.545 -293.527 -132.539 -293.56 -132.534L-293.597 -132.529L-293.607 -132.527C-293.609 -132.527 -293.611 -132.527 -293.538 -132.032ZM-300.226 -122.467C-300.227 -122.467 -300.228 -122.466 -300.3 -122.961C-300.372 -123.456 -300.371 -123.456 -300.368 -123.457L-300.358 -123.458L-300.321 -123.463L-300.248 -123.473L-300.177 -123.482C-300.05 -123.499 -299.86 -123.522 -299.609 -123.551C-299.107 -123.607 -298.358 -123.683 -297.367 -123.761C-295.384 -123.917 -292.431 -124.082 -288.538 -124.119C-280.752 -124.193 -269.207 -123.755 -254.151 -121.711C-224.037 -117.622 -179.879 -107.107 -123.651 -81.4121C-11.1934 -30.0222 149.533 82.0805 342.76 324.909C535.914 567.646 696.522 679.634 808.804 730.944C864.946 756.599 909.009 767.086 939.023 771.161C954.031 773.199 965.528 773.634 973.267 773.56C977.136 773.524 980.066 773.36 982.027 773.205C983.007 773.128 983.744 773.053 984.235 772.998C984.407 772.979 984.549 772.962 984.66 772.948L984.787 772.932C984.848 772.924 984.893 772.918 984.923 772.914L984.956 772.909L984.964 772.908C984.965 772.908 984.965 772.908 984.973 772.96C984.982 773.018 985 773.142 985.038 773.402C985.11 773.897 985.109 773.897 985.106 773.898L985.097 773.899L985.06 773.904C985.027 773.909 984.979 773.915 984.915 773.924C984.863 773.93 984.799 773.938 984.725 773.947C984.621 773.96 984.495 773.975 984.347 773.992C983.845 774.048 983.096 774.124 982.105 774.202C980.122 774.358 977.169 774.523 973.276 774.56C965.49 774.634 953.945 774.196 938.889 772.152C908.775 768.063 864.617 757.548 808.389 731.853C695.932 680.463 535.205 568.361 341.978 325.532C148.824 82.7955 -11.7841 -29.1927 -124.066 -80.5025C-180.207 -106.157 -224.27 -116.644 -254.285 -120.72C-269.293 -122.758 -280.789 -123.193 -288.528 -123.119C-292.398 -123.082 -295.328 -122.918 -297.288 -122.764C-298.268 -122.687 -299.006 -122.612 -299.497 -122.557C-299.743 -122.529 -299.927 -122.506 -300.049 -122.491L-300.11 -122.483L-300.185 -122.472L-300.218 -122.468L-300.226 -122.467ZM-307.062 -113.89C-306.989 -113.396 -306.989 -113.396 -306.987 -113.396L-306.98 -113.397L-306.947 -113.402L-306.9 -113.408L-306.81 -113.42C-306.688 -113.435 -306.504 -113.458 -306.259 -113.486C-305.767 -113.541 -305.03 -113.616 -304.05 -113.693C-302.09 -113.848 -299.159 -114.011 -295.29 -114.048C-287.551 -114.122 -276.054 -113.687 -261.047 -111.649C-231.032 -107.574 -186.969 -97.0865 -130.828 -71.4316C-18.5456 -20.1218 142.063 91.8664 335.216 334.603C528.444 577.432 689.17 689.534 801.627 740.924C857.856 766.619 902.014 777.134 932.127 781.223C947.184 783.267 958.728 783.705 966.514 783.631C970.408 783.594 973.361 783.429 975.343 783.273C976.335 783.195 977.084 783.119 977.586 783.063C977.837 783.034 978.026 783.011 978.154 782.994C978.217 782.986 978.266 782.98 978.298 782.975L978.335 782.97L978.345 782.969C978.346 782.969 978.347 782.968 978.341 782.918C978.333 782.86 978.315 782.737 978.277 782.473C978.205 781.979 978.204 781.979 978.203 781.979L978.195 781.98L978.162 781.985L978.098 781.993L978.025 782.003L977.899 782.019C977.827 782.028 977.743 782.038 977.647 782.049L977.474 782.069C976.983 782.124 976.245 782.199 975.265 782.276C973.305 782.431 970.374 782.594 966.505 782.631C958.766 782.705 947.27 782.27 932.262 780.232C902.247 776.157 858.184 765.669 802.043 740.015C689.761 688.705 529.153 576.717 335.999 333.98C142.771 91.1514 -17.955 -20.9513 -130.412 -72.3411C-186.641 -98.036 -230.798 -108.551 -260.912 -112.64C-275.969 -114.684 -287.513 -115.122 -295.299 -115.048C-299.192 -115.011 -302.146 -114.846 -304.128 -114.69C-305.12 -114.612 -305.868 -114.536 -306.37 -114.48C-306.622 -114.451 -306.811 -114.428 -306.938 -114.411L-307.034 -114.399L-307.083 -114.392L-307.12 -114.387L-307.13 -114.386C-307.132 -114.385 -307.134 -114.385 -307.062 -113.89ZM-313.749 -104.325C-313.75 -104.325 -313.751 -104.325 -313.823 -104.819C-313.895 -105.314 -313.894 -105.314 -313.891 -105.315L-313.882 -105.316L-313.844 -105.321C-313.812 -105.326 -313.764 -105.332 -313.7 -105.34C-313.573 -105.357 -313.383 -105.38 -313.132 -105.409C-312.63 -105.465 -311.881 -105.541 -310.89 -105.619C-308.907 -105.775 -305.954 -105.94 -302.061 -105.977C-294.275 -106.051 -282.73 -105.613 -267.674 -103.569C-237.56 -99.4801 -193.402 -88.9651 -137.174 -63.2702C-24.7165 -11.8804 136.01 100.222 329.237 343.051C522.391 585.788 682.999 697.776 795.281 749.086C851.422 774.74 895.486 785.227 925.5 789.303C940.508 791.341 952.005 791.776 959.744 791.702C963.613 791.665 966.543 791.501 968.503 791.347C969.484 791.27 970.221 791.195 970.712 791.14C970.808 791.129 970.894 791.119 970.971 791.11L971.137 791.09L971.264 791.074C971.325 791.066 971.37 791.06 971.4 791.056L971.433 791.051L971.441 791.05C971.442 791.05 971.442 791.05 971.45 791.1C971.459 791.157 971.477 791.28 971.515 791.544C971.556 791.822 971.573 791.944 971.58 791.998C971.585 792.039 971.585 792.039 971.583 792.04L971.574 792.041L971.537 792.046L971.492 792.052L971.392 792.065C971.265 792.082 971.075 792.105 970.824 792.134C970.322 792.19 969.573 792.266 968.582 792.344C966.599 792.5 963.646 792.665 959.753 792.702C951.967 792.776 940.422 792.338 925.366 790.294C895.252 786.205 851.094 775.69 794.866 749.995C682.409 698.605 521.682 586.503 328.455 343.674C135.301 100.937 -25.3072 -11.0509 -137.589 -62.3606C-193.73 -88.0156 -237.793 -98.5026 -267.808 -102.578C-282.816 -104.616 -294.312 -105.051 -302.051 -104.977C-305.921 -104.941 -308.851 -104.777 -310.811 -104.622C-311.791 -104.545 -312.529 -104.47 -313.02 -104.415C-313.266 -104.387 -313.45 -104.365 -313.572 -104.349L-313.638 -104.34L-313.708 -104.331L-313.741 -104.326L-313.749 -104.325ZM-320.585 -95.7484C-320.512 -95.2537 -320.512 -95.2538 -320.51 -95.254L-320.503 -95.2551L-320.47 -95.2597L-320.401 -95.2689L-320.333 -95.2778C-320.211 -95.2936 -320.027 -95.3164 -319.782 -95.344C-319.29 -95.3993 -318.553 -95.4741 -317.573 -95.5513C-315.613 -95.7056 -312.682 -95.8696 -308.813 -95.9064C-301.074 -95.98 -289.577 -95.545 -274.57 -93.5072C-244.555 -89.4317 -200.492 -78.9446 -144.351 -53.2897C-32.0687 -1.97993 128.539 110.008 321.693 352.745C514.921 595.574 675.647 707.676 788.104 759.066C844.333 784.761 888.491 795.276 918.604 799.365C933.661 801.409 945.205 801.847 952.991 801.773C956.885 801.736 959.838 801.571 961.82 801.415C962.812 801.337 963.561 801.261 964.063 801.205C964.162 801.193 964.252 801.183 964.333 801.173C964.454 801.159 964.554 801.146 964.631 801.136L964.72 801.125L964.775 801.117L964.812 801.112L964.822 801.111C964.824 801.11 964.826 801.11 964.754 800.615C964.714 800.342 964.696 800.22 964.688 800.165C964.681 800.121 964.68 800.121 964.68 800.121L964.672 800.122L964.639 800.126C964.609 800.131 964.563 800.137 964.502 800.145L964.376 800.161C964.265 800.174 964.123 800.191 963.951 800.211C963.649 800.245 963.254 800.286 962.768 800.331C962.462 800.359 962.12 800.388 961.742 800.418C959.782 800.572 956.851 800.736 952.982 800.773C945.243 800.847 933.746 800.412 918.739 798.374C888.724 794.298 844.661 783.811 788.52 758.157C676.238 706.847 515.63 594.858 322.476 352.122C129.248 109.293 -31.478 -2.80946 -143.935 -54.1993C-200.164 -79.8942 -244.321 -90.4091 -274.435 -94.4981C-289.492 -96.5425 -301.036 -96.9804 -308.822 -96.9064C-312.715 -96.8693 -315.669 -96.7043 -317.651 -96.5482C-318.643 -96.4701 -319.391 -96.3943 -319.894 -96.3377L-320.029 -96.3222L-320.134 -96.31C-320.269 -96.294 -320.379 -96.2803 -320.461 -96.2696C-320.525 -96.2613 -320.573 -96.2548 -320.606 -96.2504L-320.643 -96.2452L-320.653 -96.2438C-320.655 -96.2434 -320.657 -96.2432 -320.585 -95.7484ZM-327.272 -86.183C-327.273 -86.1828 -327.274 -86.1828 -327.346 -86.6775C-327.418 -87.1723 -327.417 -87.1725 -327.414 -87.1728L-327.405 -87.1742L-327.367 -87.1794C-327.335 -87.1839 -327.287 -87.1904 -327.223 -87.1986L-327.104 -87.2138C-326.987 -87.2284 -326.837 -87.2463 -326.655 -87.2668C-326.153 -87.3233 -325.404 -87.3992 -324.413 -87.4773C-322.43 -87.6334 -319.477 -87.7984 -315.584 -87.8354C-307.798 -87.9095 -296.253 -87.4716 -281.197 -85.4272C-251.083 -81.3382 -206.925 -70.8232 -150.697 -45.1283C-38.2396 6.26146 122.487 118.364 315.714 361.193C508.868 603.929 669.476 715.918 781.758 767.228C837.899 792.882 881.963 803.369 911.977 807.445C926.985 809.483 938.481 809.918 946.22 809.844C950.09 809.807 953.02 809.643 954.98 809.489C955.494 809.449 955.941 809.409 956.32 809.372C956.666 809.339 956.955 809.308 957.189 809.282L957.276 809.272L957.377 809.26C957.467 809.249 957.547 809.24 957.614 809.232L957.741 809.216C957.802 809.208 957.847 809.201 957.877 809.197L957.91 809.193L957.918 809.192C957.919 809.192 957.919 809.192 957.923 809.216L957.926 809.233C957.934 809.286 957.952 809.408 957.992 809.686C958.064 810.181 958.063 810.181 958.06 810.181L958.051 810.183L958.013 810.188L957.962 810.195L957.869 810.207C957.742 810.224 957.552 810.247 957.301 810.275C956.799 810.332 956.05 810.408 955.059 810.486C953.076 810.642 950.123 810.807 946.23 810.844C938.444 810.918 926.899 810.48 911.843 808.436C881.729 804.347 837.571 793.832 781.343 768.137C668.886 716.747 508.159 604.644 314.932 361.816C121.778 119.079 -38.8302 7.091 -151.112 -44.2188C-207.253 -69.8737 -251.316 -80.3607 -281.331 -84.4363C-296.339 -86.4741 -307.835 -86.9091 -315.574 -86.8355C-319.444 -86.7987 -322.374 -86.6347 -324.334 -86.4804C-325.314 -86.4032 -326.052 -86.3284 -326.543 -86.2731C-326.789 -86.2454 -326.973 -86.2227 -327.095 -86.2069C-327.156 -86.199 -327.201 -86.1929 -327.231 -86.1888L-327.264 -86.1841L-327.272 -86.183ZM-334.108 -77.6066C-334.035 -77.1118 -334.035 -77.1119 -334.034 -77.1121L-334.026 -77.1132L-333.993 -77.1178C-333.963 -77.1219 -333.917 -77.1281 -333.856 -77.136C-333.734 -77.1517 -333.55 -77.1745 -333.305 -77.2021C-332.814 -77.2574 -332.076 -77.3322 -331.096 -77.4094C-329.136 -77.5638 -326.205 -77.7278 -322.336 -77.7646C-314.597 -77.8382 -303.1 -77.4032 -288.093 -75.3653C-258.078 -71.2898 -214.015 -60.8028 -157.874 -35.1479C-45.5918 16.1619 115.016 128.15 308.17 370.887C501.398 613.715 662.124 725.818 774.581 777.208C830.81 802.903 874.968 813.418 905.081 817.507C920.138 819.551 931.682 819.989 939.468 819.915C943.361 819.878 946.315 819.713 948.297 819.557C949.289 819.479 950.037 819.403 950.54 819.346C950.791 819.318 950.98 819.295 951.108 819.278C951.171 819.27 951.219 819.263 951.252 819.259L951.289 819.254L951.299 819.252C951.3 819.252 951.301 819.252 951.296 819.213C951.289 819.16 951.272 819.039 951.231 818.757C951.158 818.262 951.158 818.262 951.157 818.263L951.149 818.264L951.116 818.268L951.065 818.275L950.979 818.286L950.853 818.302C950.741 818.316 950.6 818.333 950.428 818.353C949.936 818.408 949.199 818.483 948.219 818.56C946.259 818.714 943.328 818.878 939.459 818.915C931.72 818.989 920.223 818.554 905.216 816.516C875.201 812.44 831.138 801.953 774.997 776.298C662.715 724.989 502.107 613 308.953 370.264C115.725 127.435 -45.0011 15.3324 -157.458 -36.0574C-213.687 -61.7523 -257.845 -72.2673 -287.958 -76.3562C-303.015 -78.4007 -314.559 -78.8386 -322.345 -78.7645C-326.238 -78.7275 -329.192 -78.5625 -331.174 -78.4063C-332.166 -78.3283 -332.914 -78.2524 -333.417 -78.1959C-333.567 -78.179 -333.695 -78.1638 -333.801 -78.1508C-333.872 -78.1421 -333.933 -78.1343 -333.985 -78.1277C-334.048 -78.1195 -334.096 -78.113 -334.129 -78.1085L-334.166 -78.1033L-334.176 -78.1019C-334.178 -78.1016 -334.18 -78.1014 -334.108 -77.6066ZM-340.795 -68.0412C-340.797 -68.041 -340.797 -68.0409 -340.869 -68.5357C-340.941 -69.0304 -340.94 -69.0306 -340.937 -69.031L-340.928 -69.0324L-340.89 -69.0376L-340.855 -69.0424C-340.826 -69.0463 -340.79 -69.0511 -340.746 -69.0568C-340.619 -69.0732 -340.429 -69.0967 -340.178 -69.1249C-339.676 -69.1815 -338.927 -69.2573 -337.936 -69.3354C-335.953 -69.4915 -333 -69.6566 -329.107 -69.6936C-321.321 -69.7676 -309.776 -69.3298 -294.72 -67.2853C-264.606 -63.1963 -220.448 -52.6814 -164.22 -26.9865C-51.7626 24.4033 108.964 136.506 302.191 379.335C495.345 622.071 655.953 734.059 768.235 785.369C824.376 811.024 868.439 821.511 898.454 825.587C913.462 827.625 924.958 828.06 932.697 827.986C936.567 827.949 939.497 827.785 941.457 827.631C942.437 827.554 943.175 827.479 943.666 827.424C943.764 827.412 943.852 827.402 943.93 827.393L944.091 827.373L944.218 827.357C944.279 827.349 944.324 827.343 944.354 827.339L944.387 827.335L944.395 827.334C944.396 827.333 944.397 827.333 944.469 827.828L944.51 828.109C944.524 828.208 944.531 828.261 944.535 828.29C944.539 828.323 944.538 828.323 944.537 828.323L944.528 828.325L944.49 828.33C944.458 828.334 944.41 828.341 944.346 828.349C944.219 828.366 944.029 828.389 943.778 828.417C943.276 828.474 942.527 828.55 941.536 828.628C939.553 828.784 936.6 828.949 932.707 828.986C924.921 829.06 913.376 828.622 898.32 826.578C868.206 822.489 824.048 811.974 767.82 786.279C655.363 734.889 494.636 622.786 301.409 379.957C108.255 137.221 -52.3533 25.2329 -164.635 -26.0769C-220.776 -51.7318 -264.84 -62.2189 -294.854 -66.2944C-309.862 -68.3322 -321.358 -68.7672 -329.097 -68.6936C-332.967 -68.6568 -335.897 -68.4929 -337.857 -68.3385C-338.837 -68.2613 -339.575 -68.1865 -340.066 -68.1312L-340.156 -68.121C-340.357 -68.0979 -340.511 -68.0788 -340.618 -68.065C-340.679 -68.0571 -340.724 -68.051 -340.754 -68.0469L-340.787 -68.0423L-340.795 -68.0412ZM-347.631 -59.4647C-347.559 -58.97 -347.558 -58.97 -347.557 -58.9702L-347.549 -58.9713L-347.516 -58.976C-347.486 -58.9801 -347.44 -58.9862 -347.379 -58.9941C-347.257 -59.0099 -347.073 -59.0326 -346.828 -59.0603C-346.337 -59.1156 -345.599 -59.1904 -344.619 -59.2676C-342.659 -59.4219 -339.728 -59.5859 -335.859 -59.6227C-328.12 -59.6963 -316.623 -59.2613 -301.616 -57.2235C-271.601 -53.1479 -227.538 -42.6609 -171.397 -17.006C-59.1148 34.3038 101.493 146.292 294.647 389.028C487.875 631.857 648.601 743.96 761.058 795.35C817.287 821.045 861.445 831.56 891.558 835.649C906.615 837.693 918.159 838.131 925.945 838.057C929.838 838.02 932.792 837.855 934.774 837.699C935.766 837.621 936.514 837.545 937.017 837.488C937.138 837.475 937.245 837.462 937.338 837.451C937.413 837.442 937.478 837.434 937.534 837.427L937.585 837.42C937.648 837.412 937.696 837.405 937.729 837.401L937.766 837.396L937.776 837.394C937.777 837.394 937.778 837.394 937.773 837.36C937.77 837.331 937.762 837.277 937.748 837.176L937.708 836.899C937.635 836.404 937.635 836.404 937.634 836.404L937.626 836.406L937.593 836.41L937.533 836.418L937.456 836.428L937.33 836.444C937.265 836.452 937.19 836.461 937.105 836.471C937.043 836.479 936.977 836.486 936.905 836.494C936.734 836.514 936.534 836.535 936.305 836.558C936.188 836.57 936.063 836.582 935.931 836.595C935.832 836.604 935.728 836.614 935.621 836.624L935.411 836.642C935.189 836.662 934.951 836.682 934.696 836.702C932.736 836.856 929.805 837.02 925.936 837.057C918.197 837.13 906.7 836.696 891.693 834.658C861.678 830.582 817.615 820.095 761.474 794.44C649.192 743.13 488.584 631.142 295.43 388.406C102.202 145.577 -58.5241 33.4742 -170.981 -17.9156C-227.21 -43.6105 -271.368 -54.1254 -301.481 -58.2144C-316.538 -60.2588 -328.082 -60.6967 -335.868 -60.6226C-339.761 -60.5856 -342.715 -60.4206 -344.697 -60.2645C-345.689 -60.1864 -346.437 -60.1105 -346.94 -60.054C-347.191 -60.0257 -347.38 -60.0023 -347.508 -59.9858L-347.61 -59.9724L-347.652 -59.9666L-347.689 -59.9615L-347.699 -59.9601C-347.701 -59.9597 -347.703 -59.9595 -347.631 -59.4647ZM-354.318 -49.8993C-354.32 -49.8991 -354.32 -49.899 -354.392 -50.3938C-354.464 -50.8886 -354.463 -50.8888 -354.46 -50.8891L-354.451 -50.8905L-354.414 -50.8957C-354.381 -50.9002 -354.333 -50.9067 -354.269 -50.9149C-354.142 -50.9314 -353.952 -50.9548 -353.701 -50.9831C-353.199 -51.0396 -352.45 -51.1155 -351.459 -51.1935C-349.476 -51.3497 -346.523 -51.5147 -342.63 -51.5517C-334.844 -51.6258 -323.299 -51.1879 -308.243 -49.1435C-278.129 -45.0545 -233.971 -34.5395 -177.743 -8.84463C-65.2857 42.5452 95.4407 154.648 288.668 397.477C481.822 640.213 642.43 752.201 754.712 803.511C810.853 829.166 854.916 839.653 884.931 843.729C899.939 845.766 911.435 846.201 919.174 846.128C923.044 846.091 925.974 845.927 927.934 845.773C928.914 845.696 929.652 845.621 930.143 845.565C930.315 845.546 930.457 845.529 930.568 845.515L930.695 845.499L930.752 845.492L930.831 845.481L930.864 845.476L930.872 845.475C930.873 845.475 930.874 845.475 930.946 845.97C931.018 846.465 931.017 846.465 931.014 846.465L931.004 846.467L930.967 846.472C930.935 846.476 930.887 846.483 930.823 846.491C930.696 846.507 930.506 846.531 930.255 846.559C929.753 846.616 929.004 846.692 928.013 846.77C926.03 846.926 923.077 847.091 919.184 847.128C911.398 847.202 899.853 846.764 884.797 844.72C854.683 840.631 810.525 830.116 754.297 804.421C641.84 753.031 481.113 640.928 287.886 398.099C94.7318 155.363 -65.8763 43.3747 -178.158 -7.93508C-234.299 -33.59 -278.363 -44.077 -308.377 -48.1525C-323.385 -50.1904 -334.881 -50.6254 -342.62 -50.5518C-346.49 -50.515 -349.42 -50.351 -351.38 -50.1966C-352.36 -50.1194 -353.098 -50.0446 -353.589 -49.9894C-353.835 -49.9617 -354.019 -49.9389 -354.141 -49.9232C-354.202 -49.9153 -354.247 -49.9091 -354.277 -49.905L-354.31 -49.9004L-354.318 -49.8993ZM-361.154 -41.3229C-361.082 -40.8281 -361.081 -40.8282 -361.08 -40.8284L-361.072 -40.8295L-361.039 -40.8341C-361.009 -40.8382 -360.963 -40.8444 -360.902 -40.8522C-360.78 -40.868 -360.596 -40.8908 -360.351 -40.9184C-359.86 -40.9737 -359.122 -41.0485 -358.142 -41.1257C-356.182 -41.2801 -353.252 -41.444 -349.382 -41.4808C-341.643 -41.5545 -330.147 -41.1194 -315.139 -39.0816C-285.124 -35.0061 -241.061 -24.519 -184.92 1.13585C-72.6379 52.4456 87.9703 164.434 281.124 407.17C474.352 649.999 635.078 762.102 747.535 813.492C803.764 839.187 847.921 849.701 878.035 853.79C893.092 855.835 904.636 856.273 912.422 856.199C916.315 856.162 919.268 855.997 921.251 855.841C922.243 855.762 922.991 855.687 923.493 855.63C923.745 855.602 923.934 855.578 924.061 855.562C924.125 855.554 924.173 855.547 924.206 855.543L924.243 855.538L924.253 855.536C924.255 855.536 924.257 855.536 924.185 855.041C924.112 854.546 924.112 854.546 924.11 854.546L924.103 854.547L924.07 854.552C924.04 854.556 923.994 854.562 923.933 854.57L923.807 854.586C923.695 854.6 923.554 854.617 923.382 854.636C922.89 854.692 922.153 854.766 921.173 854.844C919.213 854.998 916.282 855.162 912.413 855.199C904.674 855.272 893.177 854.837 878.17 852.799C848.155 848.724 804.092 838.237 747.951 812.582C635.669 761.272 475.06 649.284 281.907 406.548C88.6792 163.719 -72.0472 51.6161 -184.504 0.2263C-240.733 -25.4686 -284.891 -35.9835 -315.004 -40.0725C-330.061 -42.117 -341.605 -42.5548 -349.391 -42.4808C-353.284 -42.4438 -356.238 -42.2788 -358.22 -42.1226C-359.212 -42.0445 -359.96 -41.9687 -360.463 -41.9122C-360.714 -41.8839 -360.903 -41.8605 -361.031 -41.844C-361.094 -41.8357 -361.142 -41.8293 -361.175 -41.8248L-361.212 -41.8196L-361.222 -41.8182C-361.224 -41.8178 -361.226 -41.8176 -361.154 -41.3229ZM-367.841 -31.7575C-367.843 -31.7572 -367.843 -31.7572 -367.915 -32.2519C-367.987 -32.7467 -367.986 -32.7469 -367.984 -32.7473L-367.974 -32.7487L-367.937 -32.7538C-367.904 -32.7583 -367.856 -32.7648 -367.792 -32.7731C-367.665 -32.7895 -367.475 -32.813 -367.224 -32.8412C-366.722 -32.8978 -365.973 -32.9736 -364.982 -33.0517C-362.999 -33.2078 -360.046 -33.3728 -356.153 -33.4099C-348.367 -33.4839 -336.822 -33.046 -321.766 -31.0016C-291.652 -26.9126 -247.494 -16.3977 -191.266 9.29723C-78.8087 60.687 81.9177 172.79 275.145 415.619C468.299 658.355 628.907 770.343 741.189 821.653C797.33 847.308 841.393 857.795 871.408 861.87C886.416 863.908 897.912 864.343 905.651 864.27C909.521 864.233 912.451 864.069 914.411 863.914C915.391 863.837 916.129 863.763 916.62 863.707L916.85 863.681C916.923 863.672 916.988 863.664 917.045 863.657L917.172 863.641C917.233 863.633 917.278 863.627 917.308 863.623L917.341 863.618L917.349 863.617C917.35 863.617 917.35 863.617 917.357 863.661C917.365 863.716 917.383 863.838 917.423 864.112C917.495 864.606 917.494 864.607 917.491 864.607L917.481 864.608L917.444 864.614C917.412 864.618 917.364 864.625 917.3 864.633C917.232 864.642 917.145 864.653 917.041 864.665C916.951 864.676 916.848 864.688 916.732 864.701C916.23 864.757 915.481 864.833 914.49 864.912C912.507 865.068 909.554 865.233 905.661 865.27C897.875 865.344 886.33 864.906 871.274 862.861C841.16 858.772 797.002 848.257 740.774 822.562C628.317 771.173 467.59 659.07 274.363 416.241C81.2088 173.505 -79.3994 61.5166 -191.682 10.2068C-247.823 -15.4481 -291.886 -25.9351 -321.9 -30.0107C-336.908 -32.0485 -348.405 -32.4835 -356.144 -32.4099C-360.013 -32.3731 -362.943 -32.2091 -364.903 -32.0548C-365.884 -31.9776 -366.621 -31.9028 -367.112 -31.8475C-367.287 -31.8279 -367.43 -31.8107 -367.542 -31.7967C-367.588 -31.791 -367.629 -31.7859 -367.664 -31.7813C-367.725 -31.7734 -367.77 -31.7673 -367.8 -31.7632L-367.833 -31.7586L-367.841 -31.7575ZM-374.677 -23.181C-374.605 -22.6862 -374.604 -22.6863 -374.603 -22.6865L-374.595 -22.6876L-374.562 -22.6923C-374.532 -22.6964 -374.486 -22.7025 -374.425 -22.7104C-374.304 -22.7261 -374.12 -22.7489 -373.874 -22.7766C-373.383 -22.8319 -372.645 -22.9067 -371.665 -22.9838C-369.705 -23.1382 -366.775 -23.3022 -362.905 -23.339C-355.166 -23.4126 -343.67 -22.9776 -328.662 -20.9398C-298.647 -16.8642 -254.584 -6.37719 -198.443 19.2777C-86.1609 70.5875 74.4473 182.576 267.601 425.312C460.829 668.141 621.555 780.244 734.012 831.633C790.241 857.328 834.398 867.843 864.512 871.932C879.569 873.977 891.113 874.415 898.899 874.341C902.792 874.304 905.745 874.139 907.728 873.982C908.72 873.904 909.468 873.828 909.97 873.772C910.222 873.744 910.411 873.72 910.538 873.704C910.602 873.695 910.65 873.689 910.683 873.685L910.72 873.679L910.73 873.678C910.731 873.678 910.732 873.678 910.726 873.633C910.722 873.602 910.715 873.551 910.702 873.465L910.661 873.183C910.62 872.9 910.602 872.778 910.594 872.727C910.588 872.688 910.588 872.688 910.587 872.688L910.58 872.689L910.547 872.694L910.475 872.703L910.41 872.712L910.284 872.728C910.172 872.742 910.03 872.759 909.859 872.778C909.653 872.801 909.404 872.828 909.112 872.857C908.707 872.897 908.219 872.941 907.65 872.985C905.69 873.14 902.759 873.304 898.89 873.341C891.151 873.414 879.654 872.979 864.647 870.941C834.632 866.866 790.569 856.379 734.428 830.724C622.146 779.414 461.537 667.426 268.384 424.689C75.1562 181.861 -85.5702 69.758 -198.027 18.3682C-254.256 -7.32675 -298.414 -17.8417 -328.527 -21.9307C-343.584 -23.9751 -355.128 -24.413 -362.915 -24.3389C-366.808 -24.3019 -369.761 -24.1369 -371.744 -23.9808C-372.735 -23.9027 -373.484 -23.8268 -373.986 -23.7703C-374.237 -23.742 -374.426 -23.7186 -374.554 -23.7021C-374.617 -23.6939 -374.666 -23.6874 -374.698 -23.6829L-374.735 -23.6777L-374.745 -23.6763C-374.748 -23.676 -374.749 -23.6758 -374.677 -23.181ZM-381.364 -13.6156C-381.366 -13.6154 -381.366 -13.6153 -381.438 -14.1101C-381.511 -14.6048 -381.509 -14.6051 -381.507 -14.6054L-381.497 -14.6068L-381.46 -14.612L-381.401 -14.6199L-381.315 -14.6312C-381.188 -14.6477 -380.998 -14.6711 -380.747 -14.6994C-380.245 -14.7559 -379.496 -14.8318 -378.505 -14.9098C-376.522 -15.066 -373.569 -15.231 -369.676 -15.268C-361.89 -15.3421 -350.345 -14.9042 -335.289 -12.8597C-305.175 -8.77076 -261.018 1.74418 -204.789 27.4391C-92.3318 78.8289 68.3946 190.932 261.622 433.76C454.776 676.497 615.384 788.485 727.666 839.795C783.807 865.45 827.87 875.937 857.885 880.012C872.893 882.05 884.389 882.485 892.128 882.411C895.998 882.375 898.928 882.211 900.888 882.056C901.868 881.979 902.606 881.904 903.097 881.849C903.171 881.841 903.24 881.833 903.303 881.825C903.386 881.816 903.459 881.807 903.522 881.799L903.649 881.783C903.71 881.775 903.755 881.769 903.785 881.765L903.818 881.76L903.826 881.759C903.826 881.759 903.827 881.759 903.833 881.795L903.846 881.882L903.859 881.971L903.9 882.254C903.936 882.499 903.953 882.622 903.962 882.685C903.97 882.749 903.969 882.749 903.968 882.749L903.958 882.75L903.921 882.755C903.889 882.76 903.841 882.766 903.777 882.775C903.65 882.791 903.46 882.815 903.209 882.843C902.707 882.899 901.958 882.975 900.967 883.053C898.984 883.209 896.031 883.375 892.138 883.412C884.352 883.486 872.807 883.048 857.751 881.003C827.637 876.914 783.479 866.399 727.251 840.704C614.793 789.315 454.067 677.212 260.84 434.383C67.6857 191.647 -92.9225 79.6584 -205.205 28.3486C-261.346 2.69374 -305.409 -7.79329 -335.423 -11.8688C-350.431 -13.9066 -361.928 -14.3417 -369.667 -14.2681C-373.536 -14.2313 -376.466 -14.0673 -378.427 -13.9129C-379.407 -13.8357 -380.144 -13.7609 -380.635 -13.7056C-380.881 -13.678 -381.065 -13.6552 -381.187 -13.6394L-381.24 -13.6325L-381.323 -13.6213L-381.356 -13.6167L-381.364 -13.6156ZM-388.2 -5.03916C-388.128 -4.54439 -388.127 -4.54446 -388.126 -4.54467L-388.118 -4.54578L-388.085 -4.5504L-388.018 -4.55945L-387.949 -4.56852C-387.871 -4.57857 -387.768 -4.59143 -387.64 -4.6066C-387.567 -4.61526 -387.486 -4.62467 -387.397 -4.63472C-386.906 -4.69001 -386.168 -4.76479 -385.188 -4.84199C-383.228 -4.99636 -380.298 -5.16032 -376.428 -5.19713C-368.689 -5.27074 -357.193 -4.83572 -342.185 -2.7979C-312.17 1.27764 -268.107 11.7647 -211.966 37.4196C-99.684 88.7294 60.9242 200.718 254.078 443.454C447.305 686.283 608.032 798.386 720.489 849.775C776.718 875.47 820.875 885.985 850.989 890.074C866.046 892.119 877.59 892.557 885.376 892.482C889.269 892.445 892.222 892.28 894.205 892.124C895.197 892.046 895.945 891.97 896.447 891.914C896.553 891.902 896.648 891.891 896.732 891.881C896.847 891.867 896.942 891.855 897.015 891.846C897.079 891.837 897.127 891.831 897.16 891.826L897.197 891.821L897.207 891.82C897.207 891.82 897.207 891.82 897.207 891.819C897.207 891.818 897.207 891.817 897.207 891.815L897.207 891.808L897.203 891.775C897.198 891.739 897.189 891.676 897.173 891.561L897.138 891.324C897.094 891.02 897.077 890.903 897.07 890.858C897.065 890.83 897.065 890.83 897.064 890.83L897.057 890.831L897.023 890.836L896.962 890.844L896.887 890.854L896.761 890.87C896.649 890.884 896.507 890.901 896.336 890.92C896.118 890.945 895.853 890.973 895.54 891.003C895.463 891.011 895.384 891.018 895.301 891.026C895.179 891.038 895.051 891.049 894.917 891.061C894.674 891.083 894.411 891.105 894.127 891.127C892.167 891.282 889.236 891.446 885.367 891.482C877.628 891.556 866.131 891.121 851.124 889.083C821.109 885.008 777.046 874.521 720.905 848.866C608.622 797.556 448.014 685.568 254.861 442.831C61.6331 200.003 -99.0933 87.8998 -211.55 36.51C-267.779 10.8151 -311.937 0.300167 -342.05 -3.78882C-357.107 -5.83326 -368.652 -6.27113 -376.438 -6.19708C-380.331 -6.16005 -383.284 -5.99504 -385.267 -5.8389C-386.258 -5.76083 -387.007 -5.68498 -387.509 -5.62844C-387.76 -5.60017 -387.949 -5.57674 -388.077 -5.56028C-388.14 -5.55204 -388.189 -5.54555 -388.221 -5.54106L-388.258 -5.53589L-388.268 -5.53449C-388.271 -5.53414 -388.272 -5.53392 -388.2 -5.03916ZM-394.887 4.52625C-394.889 4.52647 -394.889 4.52654 -394.961 4.03177C-395.034 3.53701 -395.032 3.53679 -395.03 3.53644L-395.02 3.53504L-394.983 3.52986C-394.95 3.52538 -394.902 3.51889 -394.838 3.51065C-394.711 3.49419 -394.521 3.47076 -394.27 3.44249C-393.768 3.38595 -393.019 3.3101 -392.028 3.23203C-390.045 3.07589 -387.092 2.91088 -383.199 2.87385C-375.413 2.79979 -363.868 3.23767 -348.812 5.28211C-318.698 9.3711 -274.541 19.886 -218.312 45.5809C-105.855 96.9707 54.8716 209.073 248.099 451.902C441.253 694.639 601.861 806.627 714.143 857.937C770.284 883.592 814.347 894.079 844.362 898.154C859.37 900.192 870.866 900.627 878.605 900.553C882.475 900.517 885.405 900.353 887.365 900.198C888.345 900.121 889.083 900.046 889.574 899.991C889.655 899.982 889.729 899.973 889.797 899.965C889.873 899.956 889.94 899.948 889.999 899.941L890.126 899.925L890.207 899.914L890.262 899.907L890.295 899.902L890.303 899.901C890.303 899.901 890.303 899.901 890.304 899.905C890.305 899.908 890.306 899.915 890.308 899.929C890.315 899.974 890.332 900.091 890.377 900.395C890.424 900.719 890.44 900.831 890.444 900.87C890.447 900.891 890.446 900.891 890.445 900.891L890.435 900.892L890.398 900.897C890.366 900.902 890.318 900.908 890.254 900.917C890.126 900.933 889.937 900.956 889.686 900.985C889.184 901.041 888.435 901.117 887.444 901.195C885.461 901.351 882.508 901.516 878.615 901.553C870.829 901.627 859.284 901.189 844.227 899.145C814.114 895.056 769.956 884.541 713.728 858.846C601.27 807.456 440.544 695.354 247.317 452.525C54.1627 209.788 -106.446 97.8003 -218.728 46.4905C-274.869 20.8356 -318.932 10.3486 -348.946 6.27303C-363.954 4.23521 -375.451 3.80019 -383.19 3.87379C-387.059 3.9106 -389.989 4.07457 -391.95 4.22894C-392.93 4.30613 -393.667 4.38092 -394.158 4.43621C-394.404 4.46387 -394.588 4.48664 -394.71 4.50241L-394.765 4.50953L-394.846 4.52053L-394.88 4.52515L-394.887 4.52625ZM-401.723 13.1027C-401.651 13.5975 -401.65 13.5974 -401.649 13.5972L-401.641 13.5961L-401.608 13.5915C-401.578 13.5874 -401.533 13.5812 -401.472 13.5733C-401.435 13.5686 -401.393 13.5633 -401.345 13.5573C-401.288 13.5503 -401.223 13.5424 -401.151 13.5337C-401.081 13.5255 -401.004 13.5166 -400.92 13.5071C-400.429 13.4519 -399.691 13.3771 -398.711 13.2999C-396.751 13.1455 -393.821 12.9815 -389.951 12.9447C-382.212 12.8711 -370.716 13.3061 -355.708 15.344C-325.693 19.4195 -281.63 29.9065 -225.489 55.5614C-113.207 106.871 47.4011 218.859 240.555 461.596C433.782 704.425 594.509 816.527 706.966 867.917C763.195 893.612 807.352 904.127 837.466 908.216C852.522 910.26 864.067 910.698 871.853 910.624C875.746 910.587 878.699 910.422 880.682 910.266C881.673 910.188 882.422 910.112 882.924 910.056C883.175 910.027 883.365 910.004 883.492 909.987C883.556 909.979 883.604 909.973 883.637 909.968L883.674 909.963L883.684 909.962C883.686 909.961 883.688 909.961 883.615 909.466C883.571 909.162 883.554 909.045 883.547 909C883.545 908.988 883.544 908.981 883.543 908.978C883.542 908.972 883.542 908.972 883.541 908.972L883.534 908.973L883.5 908.978L883.456 908.984L883.364 908.996L883.238 909.012C883.126 909.025 882.984 909.042 882.813 909.062C882.683 909.076 882.537 909.092 882.374 909.109C882.223 909.125 882.058 909.141 881.879 909.159C881.513 909.194 881.088 909.231 880.604 909.269C878.643 909.424 875.713 909.587 871.844 909.624C864.105 909.698 852.608 909.263 837.6 907.225C807.586 903.15 763.523 892.662 707.382 867.008C595.099 815.698 434.491 703.71 241.337 460.973C48.11 218.144 -112.616 106.042 -225.073 54.6519C-281.302 28.957 -325.46 18.442 -355.573 14.353C-370.63 12.3086 -382.175 11.8707 -389.961 11.9448C-393.854 11.9818 -396.807 12.1468 -398.79 12.303C-399.781 12.381 -400.53 12.4569 -401.032 12.5134C-401.283 12.5417 -401.472 12.5651 -401.6 12.5816C-401.663 12.5898 -401.712 12.5963 -401.744 12.6008L-401.781 12.606L-401.791 12.6074C-401.794 12.6077 -401.795 12.6079 -401.723 13.1027ZM-408.41 22.6681C-408.412 22.6683 -408.412 22.6684 -408.484 22.1736C-408.557 21.6789 -408.555 21.6786 -408.553 21.6783L-408.543 21.6769L-408.506 21.6717C-408.473 21.6672 -408.425 21.6607 -408.361 21.6525C-408.234 21.636 -408.044 21.6126 -407.793 21.5843C-407.291 21.5278 -406.542 21.452 -405.551 21.3739C-403.568 21.2177 -400.615 21.0527 -396.722 21.0157C-388.936 20.9417 -377.392 21.3795 -362.335 23.424C-332.221 27.513 -288.064 38.0279 -231.835 63.7228C-119.378 115.113 41.3485 227.215 234.576 470.044C427.73 712.781 588.338 824.769 700.62 876.079C756.761 901.733 800.824 912.22 830.839 916.296C845.847 918.334 857.343 918.769 865.082 918.695C868.952 918.658 871.882 918.494 873.842 918.34C874.822 918.263 875.56 918.188 876.051 918.133C876.223 918.113 876.365 918.096 876.476 918.083L876.603 918.067C876.664 918.059 876.709 918.053 876.739 918.049L876.772 918.044L876.78 918.043C876.78 918.043 876.78 918.043 876.781 918.047C876.782 918.051 876.783 918.059 876.785 918.072C876.793 918.118 876.81 918.235 876.854 918.537C876.892 918.796 876.909 918.92 876.917 918.978C876.924 919.032 876.923 919.032 876.922 919.033L876.912 919.034L876.875 919.039C876.843 919.044 876.794 919.05 876.731 919.058L876.619 919.073L876.499 919.087L876.39 919.1L876.329 919.108L876.252 919.116L876.163 919.127C875.661 919.183 874.912 919.259 873.921 919.337C871.938 919.493 868.985 919.658 865.092 919.695C857.306 919.769 845.761 919.331 830.704 917.287C800.591 913.198 756.433 902.683 700.204 876.988C587.747 825.598 427.021 713.496 233.793 470.667C40.6396 227.93 -119.969 115.942 -232.251 64.6323C-288.392 38.9775 -332.455 28.4904 -362.47 24.4149C-377.477 22.3771 -388.974 21.942 -396.713 22.0157C-400.582 22.0525 -403.512 22.2164 -405.473 22.3708C-406.453 22.448 -407.19 22.5228 -407.682 22.5781C-407.927 22.6057 -408.111 22.6285 -408.233 22.6443C-408.294 22.6521 -408.34 22.6583 -408.369 22.6624L-408.403 22.667L-408.41 22.6681ZM-415.246 31.2446C-415.174 31.7393 -415.173 31.7393 -415.172 31.739L-415.164 31.7379L-415.131 31.7333L-415.066 31.7245L-414.995 31.7152C-414.873 31.6994 -414.689 31.6767 -414.443 31.649C-413.952 31.5937 -413.214 31.5189 -412.234 31.4417C-410.274 31.2874 -407.344 31.1234 -403.474 31.0866C-395.735 31.013 -384.239 31.448 -369.231 33.4858C-339.216 37.5613 -295.153 48.0484 -239.012 73.7033C-126.73 125.013 33.8781 237.001 227.032 479.738C420.259 722.567 580.986 834.669 693.443 886.059C749.672 911.754 793.829 922.269 823.943 926.358C838.999 928.402 850.544 928.84 858.33 928.766C862.223 928.729 865.176 928.564 867.159 928.408C867.821 928.356 868.375 928.305 868.82 928.26C869.041 928.237 869.234 928.216 869.401 928.198L869.517 928.184L869.617 928.173C869.677 928.166 869.732 928.159 869.782 928.153C869.855 928.144 869.917 928.136 869.969 928.129C870.033 928.121 870.081 928.115 870.114 928.11L870.151 928.105L870.161 928.104C870.161 928.103 870.162 928.103 870.158 928.071L870.154 928.037L870.147 927.987C870.137 927.915 870.12 927.798 870.092 927.608C870.02 927.113 870.02 927.114 870.018 927.114L870.01 927.115L869.977 927.119L869.887 927.132L869.841 927.138L869.715 927.154C869.603 927.167 869.461 927.184 869.289 927.204C868.798 927.259 868.061 927.334 867.081 927.411C865.12 927.565 862.19 927.729 858.321 927.766C850.582 927.84 839.085 927.405 824.077 925.367C794.063 921.291 750 910.804 693.859 885.15C581.576 833.84 420.968 721.851 227.814 479.115C34.587 236.286 -126.139 124.184 -238.597 72.7937C-294.825 47.0988 -338.983 36.5839 -369.097 32.4949C-384.153 30.4504 -395.698 30.0126 -403.484 30.0866C-407.377 30.1237 -410.33 30.2887 -412.313 30.4448C-413.304 30.5229 -414.053 30.5987 -414.555 30.6553C-414.806 30.6835 -414.995 30.707 -415.123 30.7234L-415.224 30.7368L-415.267 30.7426L-415.304 30.7478L-415.314 30.7492C-415.317 30.7496 -415.318 30.7498 -415.246 31.2446ZM-421.933 40.81C-421.935 40.8102 -421.935 40.8102 -422.008 40.3155C-422.08 39.8207 -422.078 39.8205 -422.076 39.8201L-422.066 39.8187L-422.029 39.8136L-421.971 39.8058L-421.884 39.7944C-421.757 39.7779 -421.568 39.7545 -421.316 39.7262C-420.814 39.6697 -420.066 39.5938 -419.074 39.5157C-417.091 39.3596 -414.138 39.1946 -410.245 39.1576C-402.459 39.0835 -390.915 39.5214 -375.858 41.5658C-345.744 45.6548 -301.587 56.1697 -245.358 81.8647C-132.901 133.254 27.8255 245.357 221.053 488.186C414.207 730.922 574.815 842.911 687.097 894.221C743.238 919.875 787.301 930.362 817.316 934.438C832.324 936.476 843.82 936.911 851.559 936.837C855.429 936.8 858.359 936.636 860.319 936.482C861.299 936.405 862.037 936.33 862.528 936.275C862.7 936.255 862.842 936.238 862.953 936.225L863.079 936.209L863.15 936.199L863.216 936.19L863.249 936.186L863.257 936.185C863.257 936.185 863.257 936.185 863.258 936.187C863.258 936.19 863.26 936.197 863.262 936.211C863.269 936.254 863.286 936.371 863.331 936.679C863.373 936.971 863.39 937.091 863.397 937.14C863.401 937.174 863.4 937.174 863.399 937.174L863.389 937.176L863.352 937.181L863.297 937.189L863.208 937.2C863.08 937.217 862.891 937.24 862.64 937.268C862.556 937.278 862.466 937.288 862.369 937.298C861.882 937.35 861.224 937.414 860.397 937.479C858.415 937.635 855.462 937.8 851.569 937.837C843.782 937.911 832.238 937.473 817.181 935.429C787.068 931.34 742.91 920.825 686.681 895.13C574.224 843.74 413.498 731.637 220.27 488.809C27.1166 246.072 -133.492 134.084 -245.774 82.7742C-301.915 57.1193 -345.978 46.6323 -375.993 42.5567C-391 40.5189 -402.497 40.0839 -410.236 40.1575C-414.105 40.1943 -417.036 40.3583 -418.996 40.5127C-419.976 40.5898 -420.713 40.6646 -421.205 40.7199C-421.365 40.738 -421.5 40.7541 -421.608 40.7674C-421.665 40.7744 -421.714 40.7807 -421.756 40.7861L-421.841 40.7972L-421.892 40.8042L-421.926 40.8089L-421.933 40.81ZM-428.769 49.3864C-428.697 49.8812 -428.696 49.8811 -428.695 49.8809L-428.687 49.8798L-428.654 49.8752L-428.592 49.8668L-428.518 49.857C-428.396 49.8413 -428.212 49.8185 -427.966 49.7909C-427.475 49.7356 -426.737 49.6608 -425.757 49.5836C-423.797 49.4292 -420.867 49.2652 -416.997 49.2284C-409.258 49.1548 -397.762 49.5899 -382.754 51.6277C-352.739 55.7032 -308.676 66.1902 -252.535 91.8451C-140.253 143.155 20.355 255.143 213.509 497.88C406.736 740.708 567.463 852.811 679.92 904.201C736.148 929.896 780.306 940.411 810.42 944.5C825.476 946.544 837.021 946.982 844.807 946.908C848.7 946.871 851.653 946.706 853.636 946.55C854.102 946.513 854.515 946.477 854.873 946.443C855.277 946.405 855.612 946.369 855.878 946.339C856.129 946.311 856.319 946.288 856.446 946.271C856.51 946.263 856.558 946.256 856.591 946.252L856.628 946.247L856.637 946.245C856.639 946.245 856.639 946.245 856.634 946.205C856.627 946.152 856.61 946.03 856.569 945.75C856.524 945.443 856.507 945.326 856.5 945.282L856.497 945.265L856.496 945.258C856.496 945.256 856.495 945.256 856.495 945.256L856.487 945.257L856.454 945.261L856.394 945.269L856.318 945.279L856.191 945.295C856.08 945.309 855.938 945.326 855.766 945.346C855.275 945.401 854.538 945.476 853.557 945.553C851.597 945.707 848.667 945.871 844.798 945.908C837.059 945.982 825.562 945.547 810.554 943.509C780.54 939.433 736.477 928.946 680.335 903.291C568.053 851.982 407.445 739.993 214.291 497.257C21.0639 254.428 -139.662 142.325 -252.12 90.9356C-308.348 65.2407 -352.506 54.7257 -382.62 50.6368C-397.676 48.5923 -409.221 48.1544 -417.007 48.2285C-420.9 48.2655 -423.853 48.4305 -425.836 48.5867C-426.827 48.6647 -427.576 48.7406 -428.078 48.7971C-428.329 48.8254 -428.519 48.8488 -428.646 48.8653C-428.71 48.8735 -428.758 48.88 -428.79 48.8845L-428.827 48.8897L-428.837 48.8911C-428.84 48.8914 -428.841 48.8916 -428.769 49.3864ZM-435.456 58.9518C-435.458 58.952 -435.458 58.9521 -435.531 58.4573C-435.603 57.9626 -435.601 57.9624 -435.599 57.962L-435.589 57.9606L-435.552 57.9554C-435.519 57.9509 -435.471 57.9445 -435.407 57.9362C-435.365 57.9307 -435.316 57.9245 -435.26 57.9176L-435.128 57.9015C-435.043 57.8913 -434.947 57.8801 -434.839 57.8681C-434.337 57.8115 -433.589 57.7357 -432.597 57.6576C-430.615 57.5015 -427.661 57.3364 -423.768 57.2994C-415.982 57.2254 -404.438 57.6632 -389.381 59.7077C-359.267 63.7967 -315.11 74.3116 -258.881 100.007C-146.424 151.396 14.3024 263.499 207.53 506.328C400.684 749.064 561.292 861.052 673.574 912.362C729.715 938.017 773.778 948.504 803.793 952.58C818.801 954.618 830.297 955.053 838.036 954.979C841.905 954.942 844.836 954.778 846.796 954.624C847.776 954.547 848.514 954.472 849.005 954.417C849.177 954.397 849.319 954.38 849.43 954.366L849.556 954.35C849.617 954.342 849.663 954.336 849.693 954.332L849.726 954.328L849.734 954.327C849.734 954.326 849.734 954.326 849.735 954.329C849.735 954.333 849.737 954.339 849.739 954.353L849.749 954.423L849.78 954.631L849.808 954.821C849.88 955.316 849.878 955.316 849.876 955.316L849.866 955.318L849.829 955.323C849.797 955.327 849.748 955.334 849.685 955.342C849.557 955.359 849.368 955.382 849.117 955.41L848.997 955.424C848.927 955.431 848.853 955.439 848.776 955.447C848.616 955.464 848.439 955.482 848.245 955.501C847.857 955.539 847.4 955.579 846.874 955.621C844.892 955.777 841.939 955.942 838.045 955.979C830.259 956.053 818.715 955.615 803.658 953.571C773.545 949.482 729.387 938.967 673.158 913.272C560.701 861.882 399.975 749.779 206.747 506.95C13.5935 264.214 -147.015 152.226 -259.297 100.916C-315.438 75.2612 -359.501 64.7741 -389.516 60.6986C-404.523 58.6608 -416.02 58.2258 -423.759 58.2994C-427.628 58.3362 -430.559 58.5001 -432.519 58.6545C-433.499 58.7317 -434.236 58.8065 -434.728 58.8618C-434.973 58.8894 -435.157 58.9122 -435.279 58.928C-435.34 58.9359 -435.386 58.942 -435.416 58.9461L-435.449 58.9507L-435.456 58.9518ZM-442.292 67.5283C-442.22 68.023 -442.219 68.023 -442.218 68.0228L-442.21 68.0216L-442.177 68.017L-442.113 68.0084L-442.041 67.9989C-441.919 67.9831 -441.735 67.9604 -441.489 67.9327C-440.998 67.8774 -440.26 67.8026 -439.28 67.7254C-437.32 67.5711 -434.39 67.4071 -430.52 67.3703C-422.781 67.2967 -411.285 67.7317 -396.277 69.7695C-366.262 73.8451 -322.199 84.3321 -266.058 109.987C-153.776 161.297 6.83195 273.285 199.986 516.021C393.213 758.85 553.94 870.953 666.397 922.343C722.625 948.038 766.783 958.553 796.897 962.642C811.953 964.686 823.498 965.124 831.284 965.05C835.177 965.013 838.13 964.848 840.113 964.692C840.513 964.66 840.874 964.629 841.195 964.599C841.669 964.555 842.056 964.515 842.355 964.481C842.606 964.453 842.796 964.43 842.923 964.413C842.987 964.405 843.035 964.398 843.068 964.394L843.105 964.389L843.114 964.387C843.117 964.387 843.118 964.387 843.046 963.892C843.004 963.602 842.986 963.482 842.979 963.433C842.973 963.397 842.973 963.397 842.972 963.397L842.964 963.399L842.931 963.403C842.901 963.407 842.856 963.413 842.795 963.421L842.668 963.437L842.46 963.463C842.394 963.47 842.322 963.479 842.243 963.487C841.752 963.543 841.015 963.618 840.034 963.695C838.074 963.849 835.144 964.013 831.274 964.05C823.535 964.123 812.039 963.689 797.031 961.651C767.017 957.575 722.953 947.088 666.812 921.433C554.53 870.123 393.922 758.135 200.768 515.399C7.54091 272.57 -153.186 160.467 -265.643 109.077C-321.871 83.3825 -366.029 72.8676 -396.143 68.7786C-411.199 66.7342 -422.744 66.2963 -430.53 66.3703C-434.423 66.4074 -437.376 66.5724 -439.359 66.7285C-440.35 66.8066 -441.099 66.8824 -441.601 66.939L-441.704 66.9507L-441.795 66.9612C-441.865 66.9695 -441.929 66.9772 -441.987 66.9842L-442.106 66.9991L-442.169 67.0071C-442.233 67.0154 -442.281 67.0219 -442.313 67.0264L-442.351 67.0315L-442.36 67.0329C-442.363 67.0333 -442.364 67.0335 -442.292 67.5283ZM-448.98 77.0937C-448.981 77.0939 -448.981 77.094 -449.054 76.5992C-449.126 76.1044 -449.124 76.1042 -449.122 76.1039L-449.112 76.1025L-449.075 76.0973C-449.042 76.0928 -448.994 76.0863 -448.93 76.0781C-448.803 76.0616 -448.614 76.0382 -448.363 76.0099C-447.86 75.9534 -447.112 75.8775 -446.12 75.7995C-444.138 75.6433 -441.184 75.4783 -437.291 75.4413C-429.505 75.3672 -417.961 75.8051 -402.904 77.8495C-372.79 81.9385 -328.633 92.4535 -272.404 118.148C-159.947 169.538 0.779384 281.641 194.007 524.47C387.161 767.206 547.769 879.194 660.051 930.504C716.192 956.159 760.255 966.646 790.27 970.722C805.277 972.759 816.774 973.194 824.513 973.121C828.382 973.084 831.313 972.92 833.273 972.766C834.253 972.689 834.991 972.614 835.482 972.558L835.612 972.543L835.678 972.536L835.817 972.519L835.907 972.508L836.033 972.492C836.094 972.484 836.14 972.478 836.17 972.474L836.203 972.469L836.211 972.468C836.211 972.468 836.212 972.468 836.217 972.505C836.225 972.556 836.243 972.677 836.285 972.963C836.325 973.241 836.342 973.362 836.349 973.416C836.355 973.458 836.354 973.458 836.353 973.458L836.343 973.46L836.306 973.465C836.273 973.469 836.225 973.476 836.162 973.484C836.034 973.5 835.845 973.524 835.594 973.552C835.428 973.571 835.235 973.592 835.015 973.614C834.57 973.659 834.015 973.71 833.351 973.763C831.369 973.919 828.415 974.084 824.522 974.121C816.736 974.195 805.192 973.757 790.135 971.713C760.022 967.624 715.864 957.109 659.635 931.414C547.178 880.024 386.452 767.921 193.224 525.092C0.0704193 282.356 -160.538 170.368 -272.82 119.058C-328.961 93.403 -373.024 82.916 -403.039 78.8405C-418.046 76.8026 -429.543 76.3676 -437.282 76.4412C-441.151 76.478 -444.082 76.642 -446.042 76.7964C-447.022 76.8736 -447.759 76.9483 -448.251 77.0036C-448.496 77.0313 -448.68 77.0541 -448.802 77.0698C-448.863 77.0777 -448.909 77.0838 -448.939 77.088L-448.972 77.0926L-448.98 77.0937ZM-455.815 85.6701C-455.743 86.1649 -455.742 86.1648 -455.741 86.1646L-455.733 86.1635L-455.7 86.1589C-455.67 86.1548 -455.625 86.1486 -455.564 86.1408C-455.442 86.125 -455.258 86.1022 -455.012 86.0746C-454.521 86.0193 -453.783 85.9445 -452.803 85.8673C-450.843 85.7129 -447.913 85.549 -444.043 85.5121C-436.304 85.4385 -424.808 85.8736 -409.8 87.9114C-379.786 91.9869 -335.722 102.474 -279.581 128.129C-167.299 179.439 -6.69111 291.427 186.463 534.163C379.69 776.992 540.417 889.095 652.874 940.484C709.102 966.18 753.26 976.694 783.374 980.783C798.43 982.828 809.975 983.266 817.761 983.192C821.654 983.155 824.607 982.99 826.59 982.834C827.581 982.755 828.33 982.68 828.832 982.623L828.981 982.606L829.066 982.596L829.197 982.58C829.277 982.571 829.344 982.562 829.4 982.555L829.492 982.543L829.544 982.536L829.582 982.531L829.591 982.529C829.594 982.529 829.595 982.529 829.523 982.034L829.472 981.687L829.456 981.58C829.45 981.539 829.45 981.539 829.449 981.539L829.441 981.54L829.408 981.545C829.378 981.549 829.333 981.555 829.272 981.563L829.145 981.579C829.034 981.593 828.892 981.61 828.72 981.629C828.229 981.685 827.491 981.759 826.511 981.837C824.551 981.991 821.621 982.155 817.751 982.192C810.012 982.265 798.516 981.83 783.508 979.792C753.493 975.717 709.43 965.23 653.289 939.575C541.007 888.265 380.399 776.277 187.245 533.541C-5.98214 290.712 -166.709 178.609 -279.166 127.219C-335.394 101.524 -379.552 91.0094 -409.666 86.9205C-424.722 84.876 -436.267 84.4381 -444.053 84.5122C-447.946 84.5492 -450.899 84.7142 -452.882 84.8704C-453.873 84.9485 -454.622 85.0243 -455.124 85.0808C-455.375 85.1091 -455.565 85.1326 -455.692 85.149L-455.75 85.1566L-455.836 85.1682L-455.874 85.1734L-455.883 85.1748C-455.886 85.1751 -455.887 85.1754 -455.815 85.6701ZM-462.503 95.2355C-462.504 95.2357 -462.504 95.2358 -462.577 94.7411C-462.649 94.2463 -462.647 94.2461 -462.645 94.2457L-462.635 94.2443L-462.598 94.2391L-462.53 94.23L-462.454 94.2199C-462.326 94.2035 -462.137 94.18 -461.886 94.1518C-461.383 94.0952 -460.635 94.0194 -459.643 93.9413C-457.661 93.7852 -454.707 93.6202 -450.814 93.5831C-443.028 93.5091 -431.484 93.9469 -416.427 95.9914C-386.314 100.08 -342.156 110.595 -285.927 136.29C-173.47 187.68 -12.7437 299.783 180.484 542.612C373.638 785.348 534.246 897.336 646.528 948.646C702.669 974.301 746.732 984.788 776.747 988.863C791.754 990.901 803.251 991.336 810.99 991.263C814.859 991.226 817.79 991.062 819.75 990.907C820.73 990.83 821.467 990.756 821.959 990.7C822.082 990.686 822.19 990.674 822.282 990.663L822.384 990.65L822.51 990.634C822.571 990.626 822.617 990.62 822.647 990.616L822.68 990.611L822.688 990.61C822.688 990.61 822.689 990.61 822.696 990.657C822.704 990.713 822.722 990.836 822.762 991.105C822.785 991.264 822.801 991.372 822.811 991.445L822.825 991.547C822.832 991.6 822.831 991.6 822.83 991.6L822.82 991.601L822.783 991.607L822.705 991.617L822.639 991.626C822.511 991.642 822.322 991.666 822.071 991.694C821.568 991.75 820.82 991.826 819.828 991.905C817.846 992.061 814.892 992.226 810.999 992.263C803.213 992.337 791.669 991.899 776.612 989.854C746.499 985.765 702.341 975.25 646.112 949.555C533.655 898.166 372.929 786.063 179.701 543.234C-13.4526 300.498 -174.061 188.51 -286.343 137.2C-342.484 111.545 -386.547 101.058 -416.562 96.9823C-431.569 94.9445 -443.066 94.5095 -450.805 94.5831C-454.674 94.6199 -457.605 94.7839 -459.565 94.9382C-460.545 95.0154 -461.283 95.0902 -461.774 95.1455C-462.019 95.1731 -462.203 95.1959 -462.325 95.2117C-462.386 95.2196 -462.432 95.2257 -462.462 95.2298L-462.495 95.2344L-462.503 95.2355ZM-469.338 103.812C-469.266 104.307 -469.266 104.307 -469.264 104.306L-469.256 104.305L-469.223 104.301C-469.193 104.297 -469.148 104.29 -469.087 104.283C-468.965 104.267 -468.781 104.244 -468.535 104.216C-468.044 104.161 -467.306 104.086 -466.326 104.009C-464.366 103.855 -461.436 103.691 -457.566 103.654C-449.827 103.58 -438.331 104.015 -423.323 106.053C-393.309 110.129 -349.245 120.616 -293.104 146.271C-180.822 197.58 -20.2142 309.569 172.94 552.305C366.167 795.134 526.894 907.237 639.351 958.626C695.579 984.321 739.737 994.836 769.851 998.925C784.907 1000.97 796.452 1001.41 804.238 1001.33C808.131 1001.3 811.084 1001.13 813.067 1000.98C814.058 1000.9 814.807 1000.82 815.309 1000.76C815.385 1000.76 815.456 1000.75 815.521 1000.74L815.639 1000.73C815.734 1000.71 815.813 1000.7 815.877 1000.7C815.941 1000.69 815.989 1000.68 816.021 1000.68L816.059 1000.67L816.068 1000.67C816.069 1000.67 816.07 1000.67 816.065 1000.63L816.054 1000.55C816.044 1000.48 816.027 1000.36 816 1000.18C815.928 999.681 815.927 999.681 815.926 999.681L815.918 999.682L815.885 999.687C815.855 999.691 815.81 999.697 815.749 999.705L815.622 999.721C815.511 999.735 815.369 999.752 815.197 999.771C814.977 999.796 814.706 999.825 814.387 999.856C814.185 999.876 813.962 999.896 813.721 999.917C813.494 999.937 813.25 999.958 812.988 999.978C811.028 1000.13 808.098 1000.3 804.228 1000.33C796.489 1000.41 784.993 999.972 769.985 997.934C739.97 993.859 695.907 983.372 639.766 957.717C527.484 906.407 366.876 794.419 173.722 551.682C-19.5052 308.854 -180.232 196.751 -292.689 145.361C-348.917 119.666 -393.075 109.151 -423.189 105.062C-438.245 103.018 -449.79 102.58 -457.576 102.654C-461.469 102.691 -464.422 102.856 -466.405 103.012C-467.396 103.09 -468.145 103.166 -468.647 103.223C-468.898 103.251 -469.088 103.274 -469.215 103.291L-469.311 103.304L-469.359 103.31L-469.397 103.315L-469.406 103.317C-469.409 103.317 -469.41 103.317 -469.338 103.812ZM-476.026 113.377C-476.027 113.378 -476.028 113.378 -476.1 112.883C-476.172 112.388 -476.17 112.388 -476.168 112.388L-476.158 112.386L-476.121 112.381L-476.033 112.369L-475.977 112.362C-475.849 112.345 -475.66 112.322 -475.409 112.294C-474.906 112.237 -474.158 112.161 -473.166 112.083C-471.184 111.927 -468.23 111.762 -464.337 111.725C-456.551 111.651 -445.007 112.089 -429.95 114.133C-399.837 118.222 -355.679 128.737 -299.45 154.432C-186.993 205.822 -26.2667 317.925 166.961 560.753C360.115 803.49 520.723 915.478 633.005 966.788C689.146 992.443 733.209 1002.93 763.224 1007.01C778.231 1009.04 789.728 1009.48 797.467 1009.4C801.336 1009.37 804.267 1009.2 806.227 1009.05C806.437 1009.03 806.635 1009.02 806.823 1009C806.952 1008.99 807.076 1008.98 807.195 1008.97C807.708 1008.92 808.122 1008.88 808.436 1008.84C808.608 1008.82 808.749 1008.81 808.861 1008.79L808.987 1008.78C809.048 1008.77 809.094 1008.76 809.124 1008.76L809.157 1008.75L809.164 1008.75C809.166 1008.75 809.166 1008.75 809.239 1009.25C809.284 1009.56 809.3 1009.67 809.305 1009.72C809.308 1009.74 809.308 1009.74 809.307 1009.74L809.297 1009.74L809.26 1009.75C809.227 1009.75 809.179 1009.76 809.115 1009.77L808.94 1009.79C808.832 1009.8 808.702 1009.82 808.547 1009.84C808.251 1009.87 807.869 1009.91 807.401 1009.95C807.243 1009.97 807.074 1009.98 806.895 1010C806.709 1010.01 806.513 1010.03 806.305 1010.05C804.323 1010.2 801.369 1010.37 797.476 1010.4C789.69 1010.48 778.146 1010.04 763.089 1008C732.975 1003.91 688.818 993.392 632.589 967.697C520.132 916.308 359.406 804.205 166.178 561.376C-26.9757 318.64 -187.584 206.651 -299.866 155.342C-356.007 129.687 -400.07 119.2 -430.085 115.124C-445.092 113.086 -456.589 112.651 -464.328 112.725C-468.197 112.762 -471.128 112.926 -473.088 113.08C-474.068 113.157 -474.806 113.232 -475.297 113.287C-475.542 113.315 -475.726 113.338 -475.848 113.354L-475.944 113.366L-475.985 113.372L-476.018 113.376L-476.026 113.377ZM-482.861 121.954C-482.789 122.449 -482.789 122.449 -482.787 122.448L-482.779 122.447L-482.746 122.443C-482.716 122.438 -482.671 122.432 -482.61 122.424C-482.488 122.409 -482.304 122.386 -482.058 122.358C-481.567 122.303 -480.83 122.228 -479.849 122.151C-477.889 121.997 -474.959 121.833 -471.089 121.796C-463.35 121.722 -451.854 122.157 -436.846 124.195C-406.832 128.271 -362.768 138.758 -306.627 164.413C-194.345 215.722 -33.7372 327.711 159.417 570.447C352.644 813.276 513.37 925.379 625.828 976.768C682.056 1002.46 726.214 1012.98 756.328 1017.07C771.384 1019.11 782.929 1019.55 790.715 1019.48C794.608 1019.44 797.561 1019.27 799.544 1019.12C800.535 1019.04 801.284 1018.96 801.786 1018.91C801.874 1018.9 801.955 1018.89 802.028 1018.88C802.163 1018.86 802.271 1018.85 802.354 1018.84C802.418 1018.83 802.466 1018.82 802.498 1018.82L802.535 1018.81L802.545 1018.81C802.546 1018.81 802.547 1018.81 802.544 1018.79L802.54 1018.75L802.532 1018.7L802.51 1018.54L802.477 1018.32C802.405 1017.82 802.404 1017.82 802.403 1017.82L802.395 1017.82L802.362 1017.83C802.332 1017.83 802.287 1017.84 802.226 1017.85L802.099 1017.86L801.914 1017.89C801.842 1017.89 801.762 1017.9 801.674 1017.91C801.183 1017.97 800.445 1018.04 799.465 1018.12C797.505 1018.27 794.575 1018.44 790.705 1018.48C782.966 1018.55 771.47 1018.11 756.462 1016.08C726.447 1012 682.384 1001.51 626.243 975.859C513.961 924.549 353.353 812.561 160.199 569.824C-33.0283 326.996 -193.755 214.893 -306.212 163.503C-362.44 137.808 -406.598 127.293 -436.712 123.204C-451.768 121.16 -463.313 120.722 -471.099 120.796C-474.992 120.833 -477.945 120.998 -479.928 121.154C-480.919 121.232 -481.668 121.308 -482.17 121.365C-482.421 121.393 -482.611 121.416 -482.738 121.433L-482.812 121.442L-482.883 121.452L-482.92 121.457L-482.929 121.459C-482.932 121.459 -482.933 121.459 -482.861 121.954ZM-489.549 131.519C-489.55 131.519 -489.551 131.52 -489.623 131.025C-489.695 130.53 -489.693 130.53 -489.691 130.529L-489.681 130.528L-489.644 130.523L-489.609 130.518C-489.58 130.514 -489.543 130.509 -489.5 130.504C-489.372 130.487 -489.183 130.464 -488.932 130.435C-488.43 130.379 -487.681 130.303 -486.689 130.225C-484.707 130.069 -481.754 129.904 -477.861 129.867C-470.074 129.793 -458.53 130.231 -443.473 132.275C-413.36 136.364 -369.202 146.879 -312.973 172.574C-200.516 223.964 -39.7898 336.066 153.438 578.895C346.591 821.632 507.2 933.62 619.482 984.93C675.623 1010.58 719.686 1021.07 749.701 1025.15C764.708 1027.19 776.205 1027.62 783.944 1027.55C787.813 1027.51 790.744 1027.35 792.704 1027.19C793.684 1027.11 794.421 1027.04 794.913 1026.98L795.09 1026.96C795.185 1026.95 795.267 1026.94 795.338 1026.93L795.464 1026.92C795.525 1026.91 795.571 1026.9 795.601 1026.9L795.634 1026.9L795.641 1026.89C795.643 1026.89 795.643 1026.89 795.716 1027.39C795.76 1027.69 795.776 1027.81 795.782 1027.85C795.786 1027.88 795.785 1027.88 795.784 1027.88L795.774 1027.89L795.737 1027.89C795.704 1027.89 795.656 1027.9 795.592 1027.91C795.465 1027.93 795.276 1027.95 795.024 1027.98C794.522 1028.03 793.774 1028.11 792.782 1028.19C790.799 1028.34 787.846 1028.51 783.953 1028.55C776.167 1028.62 764.623 1028.18 749.566 1026.14C719.452 1022.05 675.295 1011.53 619.066 985.839C506.609 934.449 345.883 822.347 152.655 579.518C-40.4987 336.781 -201.107 224.793 -313.389 173.483C-369.53 147.829 -413.593 137.342 -443.608 133.266C-458.616 131.228 -470.112 130.793 -477.851 130.867C-481.721 130.904 -484.651 131.068 -486.611 131.222C-487.591 131.299 -488.329 131.374 -488.82 131.429C-489.065 131.457 -489.249 131.48 -489.371 131.495L-489.453 131.506L-489.508 131.514L-489.541 131.518L-489.549 131.519ZM-496.384 140.096C-496.312 140.59 -496.312 140.59 -496.31 140.59L-496.302 140.589L-496.269 140.584C-496.239 140.58 -496.194 140.574 -496.133 140.566C-496.011 140.551 -495.827 140.528 -495.581 140.5C-495.09 140.445 -494.353 140.37 -493.372 140.293C-491.412 140.139 -488.482 139.975 -484.613 139.938C-476.874 139.864 -465.377 140.299 -450.369 142.337C-420.355 146.412 -376.292 156.9 -320.151 182.554C-207.868 233.864 -47.2603 345.852 145.894 588.589C339.121 831.418 499.847 943.52 612.305 994.91C668.533 1020.61 712.691 1031.12 742.805 1035.21C757.861 1037.25 769.406 1037.69 777.192 1037.62C781.085 1037.58 784.038 1037.42 786.021 1037.26C786.42 1037.23 786.781 1037.2 787.101 1037.17C787.576 1037.12 787.963 1037.08 788.263 1037.05C788.345 1037.04 788.421 1037.03 788.49 1037.02L788.558 1037.01C788.668 1037 788.759 1036.99 788.831 1036.98C788.895 1036.97 788.943 1036.97 788.975 1036.96L789.012 1036.96L789.022 1036.95C789.023 1036.95 789.024 1036.95 789.021 1036.93C789.015 1036.88 788.999 1036.77 788.954 1036.46C788.913 1036.18 788.895 1036.06 788.887 1036C788.881 1035.96 788.881 1035.96 788.88 1035.96L788.872 1035.97L788.839 1035.97L788.777 1035.98L788.703 1035.99L788.576 1036L788.484 1036.02L788.397 1036.03L788.239 1036.04L788.151 1036.05C787.66 1036.11 786.922 1036.19 785.942 1036.26C783.982 1036.42 781.052 1036.58 777.182 1036.62C769.443 1036.69 757.947 1036.26 742.939 1034.22C712.924 1030.14 668.861 1019.66 612.72 994.001C500.438 942.691 339.83 830.703 146.676 587.966C-46.5513 345.137 -207.278 233.035 -319.735 181.645C-375.963 155.95 -420.121 145.435 -450.235 141.346C-465.291 139.302 -476.836 138.864 -484.622 138.938C-488.515 138.975 -491.468 139.14 -493.451 139.296C-494.442 139.374 -495.191 139.45 -495.693 139.506C-495.85 139.524 -495.982 139.54 -496.091 139.553C-496.156 139.561 -496.213 139.568 -496.261 139.575L-496.35 139.586L-496.406 139.594L-496.443 139.599L-496.453 139.6C-496.455 139.601 -496.456 139.601 -496.384 140.096ZM-503.072 149.661C-503.073 149.661 -503.074 149.661 -503.146 149.167C-503.218 148.672 -503.217 148.672 -503.214 148.671L-503.204 148.67L-503.167 148.665L-503.102 148.656L-503.023 148.646C-502.895 148.629 -502.706 148.606 -502.455 148.577C-501.953 148.521 -501.204 148.445 -500.213 148.367C-498.23 148.211 -495.277 148.046 -491.384 148.009C-483.598 147.935 -472.053 148.373 -456.996 150.417C-426.883 154.506 -382.725 165.021 -326.496 190.716C-214.039 242.106 -53.3128 354.208 139.915 597.037C333.068 839.774 493.677 951.762 605.959 1003.07C662.1 1028.73 706.163 1039.21 736.178 1043.29C751.185 1045.33 762.682 1045.76 770.421 1045.69C774.29 1045.65 777.221 1045.49 779.181 1045.33C779.487 1045.31 779.77 1045.29 780.029 1045.26C780.206 1045.25 780.372 1045.23 780.527 1045.22C780.67 1045.2 780.804 1045.19 780.928 1045.18L781.165 1045.15L781.271 1045.14L781.39 1045.13C781.561 1045.11 781.703 1045.09 781.815 1045.08L781.941 1045.06C782.002 1045.05 782.048 1045.05 782.078 1045.04L782.111 1045.04L782.118 1045.04C782.119 1045.04 782.119 1045.04 782.126 1045.08C782.134 1045.13 782.152 1045.25 782.192 1045.53C782.234 1045.81 782.251 1045.94 782.258 1045.99C782.263 1046.03 782.262 1046.03 782.261 1046.03L782.251 1046.03L782.214 1046.03C782.181 1046.04 782.133 1046.04 782.069 1046.05C781.942 1046.07 781.752 1046.09 781.501 1046.12C781.294 1046.14 781.046 1046.17 780.755 1046.2C780.669 1046.21 780.579 1046.22 780.486 1046.22C780.353 1046.24 780.213 1046.25 780.065 1046.26C779.928 1046.27 779.785 1046.29 779.635 1046.3L779.435 1046.32L779.259 1046.33C777.276 1046.49 774.323 1046.65 770.43 1046.69C762.644 1046.76 751.1 1046.32 736.043 1044.28C705.929 1040.19 661.772 1029.68 605.543 1003.98C493.086 952.591 332.36 840.489 139.132 597.66C-54.0218 354.923 -214.63 242.935 -326.912 191.625C-383.053 165.97 -427.116 155.483 -457.131 151.408C-472.139 149.37 -483.635 148.935 -491.374 149.009C-495.244 149.045 -498.174 149.209 -500.134 149.364C-501.114 149.441 -501.852 149.516 -502.343 149.571C-502.589 149.599 -502.773 149.621 -502.894 149.637C-502.955 149.645 -503.001 149.651 -503.031 149.655L-503.064 149.66L-503.072 149.661ZM-509.907 158.238C-509.835 158.732 -509.835 158.732 -509.833 158.732L-509.825 158.731L-509.792 158.726C-509.762 158.722 -509.717 158.716 -509.656 158.708C-509.534 158.692 -509.35 158.67 -509.104 158.642C-508.613 158.587 -507.876 158.512 -506.896 158.435C-504.935 158.28 -502.005 158.116 -498.136 158.08C-490.397 158.006 -478.9 158.441 -463.892 160.479C-433.878 164.554 -389.815 175.041 -333.674 200.696C-221.391 252.006 -60.7833 363.994 132.371 606.731C325.598 849.56 486.324 961.662 598.782 1013.05C655.01 1038.75 699.168 1049.26 729.282 1053.35C744.338 1055.4 755.883 1055.83 763.669 1055.76C767.562 1055.72 770.515 1055.56 772.498 1055.4C773.489 1055.32 774.238 1055.25 774.74 1055.19C774.991 1055.16 775.18 1055.14 775.308 1055.12L775.419 1055.11L775.452 1055.1L775.489 1055.1L775.499 1055.1C775.501 1055.1 775.503 1055.1 775.448 1054.72L775.431 1054.6C775.392 1054.33 775.374 1054.21 775.365 1054.15C775.358 1054.11 775.357 1054.11 775.357 1054.11L775.349 1054.11L775.316 1054.11C775.286 1054.12 775.241 1054.12 775.18 1054.13L775.053 1054.15C774.942 1054.16 774.8 1054.18 774.628 1054.2C774.137 1054.25 773.399 1054.33 772.419 1054.4C770.459 1054.56 767.529 1054.72 763.659 1054.76C755.92 1054.83 744.424 1054.4 729.416 1052.36C699.401 1048.28 655.338 1037.8 599.197 1012.14C486.915 960.833 326.307 848.844 133.153 606.108C-60.0744 363.279 -220.801 251.177 -333.258 199.787C-389.487 174.092 -433.644 163.577 -463.758 159.488C-478.814 157.443 -490.359 157.006 -498.145 157.08C-502.038 157.117 -504.991 157.282 -506.974 157.438C-507.965 157.516 -508.714 157.592 -509.216 157.648C-509.467 157.677 -509.657 157.7 -509.784 157.716C-509.848 157.725 -509.896 157.731 -509.929 157.736L-509.966 157.741L-509.976 157.742C-509.978 157.743 -509.98 157.743 -509.907 158.238ZM-516.595 167.803C-516.596 167.803 -516.597 167.803 -516.669 167.308C-516.741 166.814 -516.74 166.814 -516.737 166.813L-516.727 166.812L-516.69 166.807C-516.658 166.802 -516.609 166.796 -516.546 166.787C-516.418 166.771 -516.229 166.747 -515.978 166.719C-515.476 166.663 -514.727 166.587 -513.736 166.509C-511.753 166.353 -508.8 166.188 -504.907 166.151C-497.121 166.077 -485.576 166.514 -470.519 168.559C-440.406 172.648 -396.248 183.163 -340.019 208.858C-227.562 260.247 -66.8359 372.35 126.391 615.179C319.545 857.915 480.154 969.904 592.436 1021.21C648.577 1046.87 692.64 1057.36 722.654 1061.43C737.662 1063.47 749.159 1063.9 756.898 1063.83C760.767 1063.79 763.697 1063.63 765.658 1063.47C766.638 1063.4 767.375 1063.32 767.867 1063.27C768.038 1063.25 768.18 1063.23 768.292 1063.22L768.418 1063.2C768.479 1063.19 768.524 1063.19 768.554 1063.18L768.588 1063.18L768.595 1063.18C768.596 1063.18 768.596 1063.18 768.597 1063.18C768.598 1063.19 768.6 1063.2 768.604 1063.23L768.642 1063.48L768.669 1063.67C768.742 1064.17 768.74 1064.17 768.738 1064.17L768.728 1064.17L768.691 1064.17C768.658 1064.18 768.61 1064.18 768.546 1064.19C768.476 1064.2 768.387 1064.21 768.279 1064.23C768.191 1064.24 768.091 1064.25 767.978 1064.26C767.476 1064.32 766.727 1064.39 765.736 1064.47C763.753 1064.63 760.8 1064.79 756.907 1064.83C749.121 1064.9 737.576 1064.47 722.52 1062.42C692.406 1058.33 648.249 1047.82 592.02 1022.12C479.563 970.733 318.836 858.63 125.609 615.802C-67.5449 373.065 -228.153 261.077 -340.435 209.767C-396.576 184.112 -440.639 173.625 -470.654 169.55C-485.662 167.512 -497.158 167.077 -504.897 167.151C-508.767 167.187 -511.697 167.351 -513.657 167.506C-514.637 167.583 -515.375 167.658 -515.866 167.713C-516.112 167.741 -516.296 167.763 -516.418 167.779C-516.479 167.787 -516.524 167.793 -516.554 167.797L-516.587 167.802L-516.595 167.803ZM-523.356 176.874C-523.358 176.874 -523.358 176.874 -523.43 176.379C-523.503 175.885 -523.501 175.884 -523.499 175.884L-523.489 175.883L-523.452 175.877C-523.419 175.873 -523.371 175.867 -523.307 175.858C-523.18 175.842 -522.99 175.818 -522.739 175.79C-522.237 175.734 -521.488 175.658 -520.497 175.58C-518.514 175.424 -515.561 175.259 -511.668 175.221C-503.882 175.147 -492.337 175.585 -477.281 177.63C-447.167 181.719 -403.01 192.234 -346.781 217.929C-234.324 269.318 -73.5974 381.421 119.63 624.25C312.784 866.986 473.392 978.975 585.674 1030.28C641.815 1055.94 685.878 1066.43 715.893 1070.5C730.901 1072.54 742.397 1072.97 750.136 1072.9C754.006 1072.86 756.936 1072.7 758.896 1072.55L759.106 1072.53L759.422 1072.5L759.485 1072.5C759.751 1072.47 759.994 1072.45 760.216 1072.43C760.316 1072.42 760.411 1072.41 760.503 1072.4L760.669 1072.39L760.794 1072.37C760.907 1072.36 761.01 1072.35 761.105 1072.34C761.277 1072.32 761.419 1072.3 761.53 1072.29L761.657 1072.27L761.72 1072.26L761.793 1072.25L761.826 1072.25L761.834 1072.25C761.835 1072.25 761.836 1072.25 761.908 1072.74C761.948 1073.02 761.965 1073.14 761.972 1073.19C761.978 1073.24 761.977 1073.24 761.976 1073.24L761.966 1073.24L761.929 1073.24C761.897 1073.25 761.848 1073.26 761.785 1073.26C761.657 1073.28 761.468 1073.3 761.217 1073.33C760.715 1073.39 759.966 1073.46 758.975 1073.54C756.992 1073.7 754.039 1073.86 750.146 1073.9C742.36 1073.98 730.815 1073.54 715.758 1071.49C685.645 1067.4 641.487 1056.89 585.258 1031.19C472.801 979.804 312.075 867.701 118.848 624.873C-74.3064 382.136 -234.915 270.148 -347.197 218.838C-403.338 193.183 -447.401 182.696 -477.416 178.621C-492.423 176.583 -503.92 176.148 -511.659 176.221C-515.528 176.258 -518.458 176.422 -520.419 176.577C-521.399 176.654 -522.136 176.729 -522.627 176.784C-522.873 176.811 -523.057 176.834 -523.179 176.85C-523.24 176.858 -523.286 176.864 -523.315 176.868L-523.349 176.873L-523.356 176.874Z" fill="url(#paint0_radial_1_404)"/>
<defs>
<radialGradient id="paint0_radial_1_404" cx="0" cy="0" r="1" gradientUnits="userSpaceOnUse" gradientTransform="translate(-119.5 35.0001) rotate(38.768) scale(1074.79 1127.4)">
<stop stop-color="#9350F2"/>
<stop offset="0.5" stop-color="#D745E3" stop-opacity="0.34"/>
<stop offset="1" stop-color="#9A2FA3" stop-opacity="0.16"/>
</radialGradient>
</defs>
</svg>
