<svg width="50" height="50" viewBox="0 0 50 50" fill="none" xmlns="http://www.w3.org/2000/svg">
<path d="M25.0101 27.0761C28.44 27.0761 31.2207 29.8568 31.2207 33.2866C31.2207 35.0444 30.4903 36.6318 29.3165 37.7617L25.3623 41.5665L31.2207 41.5673V45.7077H18.7996L18.7977 42.1379L26.4456 34.7784C26.8371 34.401 27.0803 33.8723 27.0803 33.2866C27.0803 32.1433 26.1535 31.2165 25.0101 31.2165C23.8668 31.2165 22.94 32.1433 22.94 33.2866H18.7996C18.7996 29.8568 21.5801 27.0761 25.0101 27.0761ZM37.4312 27.0761V35.3568H41.5715V27.0761H45.7119V45.7077H41.5715V39.4972H33.2908V27.0761H37.4312ZM8.4487 25.0059C8.4487 30.2364 10.8734 34.9005 14.66 37.9356L14.6593 42.9382C8.47147 39.3587 4.30835 32.6685 4.30835 25.0059H8.4487ZM25.0101 4.3042C35.7446 4.3042 44.5708 12.4744 45.6096 22.9356L41.4434 22.936C40.4247 14.7663 33.4556 8.44455 25.0101 8.44455C19.3176 8.44455 14.2958 11.3166 11.3149 15.6907L16.7294 15.6902V19.8305H4.30835V7.40946H8.4487L8.44847 12.5832C12.2254 7.55593 18.238 4.3042 25.0101 4.3042Z" fill="white"/>
</svg>
