<svg width="19" height="19" viewBox="0 0 19 19" fill="none" xmlns="http://www.w3.org/2000/svg">
<g clip-path="url(#clip0_7_279)">
<rect opacity="0.3" x="0.684448" y="0.986694" width="17.7331" height="17.7331" rx="8.86654" fill="#FDECFF" fill-opacity="0.93"/>
<path d="M7.3544 11.1879C7.27079 11.2794 7.15789 11.3307 7.04024 11.3307C6.92258 11.3307 6.80968 11.2794 6.72608 11.1879C6.6848 11.1429 6.65202 11.0894 6.62965 11.0303C6.60727 10.9712 6.59575 10.9078 6.59575 10.8437C6.59575 10.7797 6.60727 10.7163 6.62965 10.6572C6.65202 10.5981 6.6848 10.5445 6.72608 10.4996L9.23678 7.779C9.32058 7.6876 9.43355 7.63636 9.55126 7.63636C9.66897 7.63636 9.78195 7.6876 9.86574 7.779L12.3764 10.4996C12.4177 10.5445 12.4505 10.5981 12.4729 10.6572C12.4953 10.7163 12.5068 10.7797 12.5068 10.8437C12.5068 10.9078 12.4953 10.9712 12.4729 11.0303C12.4505 11.0894 12.4177 11.1429 12.3764 11.1879C12.2928 11.2794 12.1799 11.3307 12.0623 11.3307C11.9446 11.3307 11.8317 11.2794 11.7481 11.1879L9.5503 8.95673L7.3544 11.1879Z" fill="#F6F5FA"/>
</g>
<defs>
<clipPath id="clip0_7_279">
<rect x="18.4177" y="18.7197" width="17.7331" height="17.7331" rx="7.64146" transform="rotate(180 18.4177 18.7197)" fill="white"/>
</clipPath>
</defs>
</svg>
